<?xml version="1.0" encoding="UTF-8"?>
<svg version="1.1" xmlns="http://www.w3.org/2000/svg" width="1956" height="672">
<path d="M0 0 C1.20487816 -0.00282738 2.40975632 -0.00565475 3.65114594 -0.00856781 C10.02312938 -0.02345681 16.39509077 -0.03275213 22.76708984 -0.03710938 C29.28325527 -0.04259086 35.79921148 -0.06664239 42.31531143 -0.09508133 C47.38766035 -0.11386207 52.45996028 -0.11892137 57.532341 -0.12044525 C59.93207701 -0.1234356 62.33181292 -0.13133839 64.73151398 -0.14463043 C82.85480652 -0.23788923 101.25890023 0.28498432 118.671875 5.890625 C119.89112671 6.27190552 119.89112671 6.27190552 121.13500977 6.66088867 C150.57277815 16.27398457 173.44084379 36.74644726 187.56640625 64.02075195 C196.240161 81.61323813 199.75445781 99.92049531 199.671875 119.453125 C199.66914078 120.47792969 199.66914078 120.47792969 199.66635132 121.5234375 C199.62046593 131.73958829 199.16467097 141.33934241 196.359375 151.203125 C196.0190625 152.4303125 195.67875 153.6575 195.328125 154.921875 C186.24715847 184.61908988 166.82076152 209.26112214 139.53759766 224.20068359 C117.10403822 235.96366647 92.93851787 238.71268466 67.9375 238.49609375 C66.1905954 238.49166386 64.44368676 238.48861511 62.69677734 238.48693848 C56.3342478 238.47143033 49.97180438 238.42954912 43.609375 238.390625 C29.336875 238.32875 15.064375 238.266875 0.359375 238.203125 C0.359375 270.873125 0.359375 303.543125 0.359375 337.203125 C-20.760625 337.203125 -41.880625 337.203125 -63.640625 337.203125 C-63.7067687 297.48196657 -63.76215839 257.76086011 -63.79382099 218.03966236 C-63.79757308 213.34960229 -63.80145605 208.65954233 -63.80541992 203.96948242 C-63.80620685 203.03578079 -63.80699378 202.10207916 -63.80780456 201.14008354 C-63.82085644 186.02417333 -63.84450909 170.90829736 -63.87208339 155.79240746 C-63.90014365 140.28068592 -63.91680258 124.7689823 -63.92289048 109.25723642 C-63.92700563 99.68661548 -63.9400004 90.11609135 -63.9643744 80.54550021 C-63.98023924 73.98148698 -63.98502366 67.41752375 -63.98112913 60.85349274 C-63.97920875 57.06708817 -63.9821408 53.28085269 -63.99824142 49.49447823 C-64.01558554 45.38557728 -64.00957954 41.27703538 -64.00138855 37.16810608 C-64.01012707 35.97645484 -64.0188656 34.78480359 -64.02786893 33.5570417 C-63.96838918 22.52151954 -61.8417466 15.36989386 -54.0703125 7.375 C-41.16038304 -4.16506556 -16.20800774 0.02596217 0 0 Z M0.359375 61.203125 C0.359375 100.143125 0.359375 139.083125 0.359375 179.203125 C14.405 179.285625 28.450625 179.368125 42.921875 179.453125 C49.53005249 179.50774902 49.53005249 179.50774902 56.27172852 179.56347656 C60.28312827 179.57686905 60.28312827 179.57686905 64.29454041 179.5848999 C66.05642256 179.59097013 67.81829001 179.60488525 69.58006287 179.62542725 C88.49120554 179.8345587 105.76966573 177.19416208 120.16015625 163.65625 C133.06762141 149.25858016 137.31001274 132.54094515 136.53857422 113.53515625 C135.33234656 97.8377631 127.68953529 84.7757455 116.359375 74.203125 C104.21879749 64.39442671 89.25311856 61.01500549 73.92382812 61.08959961 C73.11006462 61.08947907 72.29630112 61.08935854 71.45787811 61.08923435 C68.8520982 61.08997426 66.24639193 61.09756002 63.640625 61.10546875 C62.02050816 61.10694103 60.40039085 61.10795998 58.78027344 61.10852051 C52.80663332 61.11374025 46.83300342 61.1277015 40.859375 61.140625 C20.811875 61.1715625 20.811875 61.1715625 0.359375 61.203125 Z " fill="#2D355F" transform="translate(1123.640625,79.796875)"/>
<path d="M0 0 C5.37997816 4.72813781 9.27027534 8.98353801 13.2890625 15.01171875 C13.9490625 5.11171875 14.6090625 -4.78828125 15.2890625 -14.98828125 C34.0990625 -14.98828125 52.9090625 -14.98828125 72.2890625 -14.98828125 C72.2890625 63.22171875 72.2890625 141.43171875 72.2890625 222.01171875 C53.8090625 222.01171875 35.3290625 222.01171875 16.2890625 222.01171875 C15.2990625 211.45171875 14.3090625 200.89171875 13.2890625 190.01171875 C10.6490625 193.64171875 8.0090625 197.27171875 5.2890625 201.01171875 C-9.40518998 217.4990199 -33.86927817 227.65913893 -55.7109375 229.01171875 C-91.53827681 230.87098952 -124.05876664 221.15465079 -150.8984375 197.046875 C-174.07422882 174.91218368 -184.0057593 142.01347217 -184.93359375 110.7421875 C-185.59232484 75.07623963 -178.14805671 40.73197525 -153.43359375 13.765625 C-115.44661908 -24.91045579 -43.25673878 -36.04728232 0 0 Z M-90.7109375 40.01171875 C-91.53980469 40.43066406 -92.36867188 40.84960938 -93.22265625 41.28125 C-108.3919518 49.54458682 -118.08860302 63.72029162 -122.96875 80.0234375 C-128.49484237 102.27323046 -126.18020581 124.32605791 -114.8359375 144.26171875 C-105.53224448 159.00630567 -91.52139402 168.19180525 -74.7734375 172.82421875 C-55.36627496 177.09176235 -35.29655827 175.0746839 -18.0234375 164.88671875 C-1.4065635 153.52370932 7.57042822 137.6502234 11.8984375 118.28515625 C14.63059516 95.38967505 11.45290886 73.73089508 -3.0234375 55.13671875 C-14.6049948 41.81401517 -29.29906257 34.40823747 -46.7109375 32.01171875 C-62.20213574 30.99380448 -76.84139316 32.57627946 -90.7109375 40.01171875 Z " fill="#ED3364" transform="translate(489.7109375,194.98828125)"/>
<path d="M0 0 C5.37997816 4.72813781 9.27027534 8.98353801 13.2890625 15.01171875 C13.9490625 5.11171875 14.6090625 -4.78828125 15.2890625 -14.98828125 C34.0990625 -14.98828125 52.9090625 -14.98828125 72.2890625 -14.98828125 C72.2890625 63.22171875 72.2890625 141.43171875 72.2890625 222.01171875 C54.1390625 222.01171875 35.9890625 222.01171875 17.2890625 222.01171875 C15.37222375 220.09488 15.77375698 216.69517683 15.53515625 214.1328125 C15.46998306 213.44615005 15.40480988 212.75948761 15.33766174 212.05201721 C15.12977357 209.8514544 14.92810512 207.65037093 14.7265625 205.44921875 C14.58699677 203.96024814 14.44702808 202.47131524 14.30664062 200.98242188 C13.96276512 197.32594745 13.62446668 193.66898107 13.2890625 190.01171875 C12.82508057 190.6864624 12.36109863 191.36120605 11.88305664 192.05639648 C11.26551514 192.94786377 10.64797363 193.83933105 10.01171875 194.7578125 C9.40336182 195.63880615 8.79500488 196.5197998 8.16821289 197.42749023 C-4.73195717 215.16794757 -27.96563987 224.49217214 -48.9609375 228.32421875 C-81.16889591 232.45446249 -115.77755473 224.83977268 -141.7109375 205.01171875 C-166.88451093 184.80853729 -180.09891969 156.03249029 -183.9609375 124.44921875 C-187.69535728 88.75648183 -182.38327785 51.11646961 -160.0234375 22.01171875 C-138.87352445 -3.39272227 -110.17740909 -17.46738719 -77.36621094 -20.77734375 C-49.39954863 -22.99904256 -22.10633881 -18.42194901 0 0 Z M-103.7109375 49.01171875 C-104.29875 49.51960938 -104.8865625 50.0275 -105.4921875 50.55078125 C-115.87869315 60.16285446 -122.52281431 74.11968082 -124.7109375 88.01171875 C-124.82179688 88.71554687 -124.93265625 89.419375 -125.046875 90.14453125 C-127.95336503 112.06103712 -123.33202866 133.32869578 -110.0859375 151.13671875 C-97.98133595 165.60711529 -80.47349363 172.97078845 -62.0234375 174.82421875 C-42.78205958 175.82129126 -24.79044137 171.21624468 -9.8671875 158.609375 C3.43450788 146.16644292 11.9310286 128.54169955 12.625 110.2265625 C12.95215552 87.65283164 9.20417551 68.09210015 -6.7109375 51.01171875 C-19.95674799 37.60535298 -36.90913237 31.90970251 -55.4609375 31.69921875 C-73.26951689 31.82506136 -90.23111606 36.99433077 -103.7109375 49.01171875 Z " fill="#2D355F" transform="translate(1522.7109375,194.98828125)"/>
<path d="M0 0 C0.89363211 -0.00085442 1.78726423 -0.00170885 2.7079761 -0.00258917 C5.70823074 -0.00423885 8.7084297 0.00126908 11.7086792 0.00672913 C13.85702513 0.00701113 16.00537116 0.006853 18.15371704 0.00628662 C23.99214536 0.00599918 29.83055323 0.01188738 35.66897678 0.01886058 C41.76820841 0.02510291 47.86744048 0.02569861 53.9666748 0.02688599 C65.51923466 0.0299967 77.07178508 0.03820661 88.62434077 0.04823548 C101.7753308 0.05940466 114.92632127 0.0649091 128.07731485 0.06993091 C155.13250144 0.08038942 182.18767963 0.09798386 209.24285889 0.12025452 C209.34235799 5.6520219 209.41462312 11.18325877 209.46258545 16.7157135 C209.48259709 18.59438664 209.50981525 20.47299832 209.5446167 22.35145569 C209.59359859 25.06490824 209.61593217 27.77753148 209.63348389 30.49134827 C209.65412903 31.31984787 209.67477417 32.14834747 209.69604492 33.00195312 C209.69918087 41.30725206 206.69600088 48.40816531 201.08270264 54.54994202 C194.28641481 60.35059532 186.60460226 62.24772086 177.87107849 62.24050903 C176.58525375 62.2418837 175.29942902 62.24325836 173.97463989 62.24467468 C172.55712867 62.24113598 171.13961769 62.23750118 169.72210693 62.23377991 C168.22385154 62.23349772 166.72559601 62.23365639 165.2273407 62.23422241 C161.1657707 62.23450916 157.10423028 62.22863223 153.04266715 62.22164845 C148.79590744 62.21539451 144.54914703 62.2148095 140.30238342 62.21362305 C132.26311883 62.21051576 124.22386784 62.20231047 116.18460923 62.19227356 C105.31932795 62.17900303 94.45404295 62.17360765 83.58875561 62.16777134 C66.47344651 62.15837019 49.35816613 62.13844724 32.24285889 62.12025452 C32.24285889 91.82025452 32.24285889 121.52025452 32.24285889 152.12025452 C46.30201904 152.10285217 46.30201904 152.10285217 60.64520264 152.08509827 C66.56512478 152.0799918 72.48504535 152.07513679 78.40496826 152.07142639 C87.81179344 152.06548333 97.21860969 152.05848149 106.62542725 152.04481506 C113.47511364 152.03486841 120.32479281 152.02840113 127.17448622 152.02616602 C130.80355285 152.02485888 134.43259883 152.02177283 138.06165886 152.01452446 C142.10636193 152.00651096 146.15102877 152.00626337 150.19573975 152.00672913 C152.01374084 152.00133621 152.01374084 152.00133621 153.86846924 151.99583435 C155.51129128 151.99789635 155.51129128 151.99789635 157.18730164 152 C158.623916 151.99861731 158.623916 151.99861731 160.08955288 151.99720669 C162.24285889 152.12025452 162.24285889 152.12025452 163.24285889 153.12025452 C163.36880084 155.52441013 163.43152674 157.89818895 163.44598389 160.30384827 C163.45168396 161.03338211 163.45738403 161.76291595 163.46325684 162.51455688 C163.47272871 164.06727136 163.47924945 165.62000614 163.48309326 167.17274475 C163.49269182 169.51695208 163.52364642 171.86024168 163.55535889 174.20423889 C163.64708007 186.70672155 162.67703812 195.69037313 153.71942139 204.98353577 C147.69052835 210.18512014 140.54683379 212.24995988 132.65538025 212.24050903 C131.76502075 212.2418837 130.87466125 212.24325836 129.95732117 212.24467468 C128.99347 212.24107941 128.02961884 212.23748413 127.03656006 212.23377991 C126.01170502 212.23392593 124.98684998 212.23407196 123.93093872 212.23422241 C120.54921337 212.2335267 117.16754335 212.22575022 113.78582764 212.21791077 C111.43884817 212.21604538 109.09186831 212.21462204 106.74488831 212.21362305 C100.57175621 212.20980741 94.39864769 212.19998523 88.2255249 212.18891907 C81.92466552 212.17868448 75.62380232 212.17412103 69.32293701 212.16908264 C56.96290062 212.15836213 44.60288171 212.14129712 32.24285889 212.12025452 C32.24378068 212.7532418 32.24470247 213.38622908 32.2456522 214.03839779 C32.26770757 229.4189524 32.2842705 244.79950153 32.29467106 260.18006802 C32.29983398 267.61789962 32.3068766 275.05572069 32.31829834 282.49354553 C32.3282453 288.97406794 32.33471234 295.45458271 32.33694738 301.93511254 C32.33825447 305.36855994 32.34134019 308.80198552 32.34858894 312.23542595 C32.35660305 316.06219272 32.35685002 319.88893787 32.35638428 323.7157135 C32.35997955 324.86225906 32.36357483 326.00880463 32.36727905 327.19009399 C32.36590439 328.22640961 32.36452972 329.26272522 32.3631134 330.33044434 C32.3640352 331.23656684 32.36495699 332.14268934 32.36590672 333.0762701 C32.24285889 335.12025452 32.24285889 335.12025452 31.24285889 336.12025452 C29.27916736 336.21426122 27.31206689 336.23768833 25.34613037 336.23377991 C24.08489853 336.23370438 22.82366669 336.23362885 21.5242157 336.23355103 C20.13746095 336.22844362 18.7507066 336.22322761 17.36395264 336.21791077 C15.9529068 336.21604653 14.54186031 336.21462265 13.1308136 336.21362305 C9.41045353 336.20979831 5.69013229 336.19996841 1.9697876 336.18891907 C-1.82394892 336.17870399 -5.61769169 336.17412522 -9.41143799 336.16908264 C-16.86002343 336.1583461 -24.30857684 336.14127022 -31.75714111 336.12025452 C-31.82580589 296.25469764 -31.87866922 256.38914848 -31.9103371 216.52354428 C-31.91408923 211.81717416 -31.91797219 207.11080415 -31.92193604 202.4044342 C-31.92272297 201.46747965 -31.9235099 200.53052509 -31.92432068 199.56517798 C-31.93737502 184.3936268 -31.96102903 169.22210972 -31.9885995 154.05057877 C-32.01665289 138.48349144 -32.03331723 122.91642197 -32.0394066 107.3493104 C-32.04352317 97.74337086 -32.05652568 88.1375277 -32.08089051 78.53161782 C-32.09674686 71.9447182 -32.1015417 65.35786841 -32.09764525 58.77095109 C-32.09572354 54.97049383 -32.09867201 51.170205 -32.11475754 47.36977768 C-32.13207817 43.24739001 -32.12610195 39.12536074 -32.11790466 35.00294495 C-32.12664319 33.80448991 -32.13538171 32.60603488 -32.14438504 31.37126303 C-32.08953529 21.18106018 -30.00991467 14.64715813 -22.94854736 7.10462952 C-16.12277986 0.92372062 -8.9184323 -0.03105277 0 0 Z " fill="#ED3465" transform="translate(106.75714111328125,80.87974548339844)"/>
<path d="M0 0 C0.886875 0.804375 1.77375 1.60875 2.6875 2.4375 C1.41145841 5.18937312 0.04277063 7.38266965 -1.96484375 9.65234375 C-2.48876709 10.24982422 -3.01269043 10.84730469 -3.55249023 11.46289062 C-4.11266846 12.09388672 -4.67284668 12.72488281 -5.25 13.375 C-6.42774685 14.71686585 -7.60481827 16.05932477 -8.78125 17.40234375 C-9.66876953 18.41337158 -9.66876953 18.41337158 -10.57421875 19.44482422 C-13.16530046 22.41510636 -15.71074012 25.42290631 -18.25 28.4375 C-21.91849499 32.78743697 -25.60101352 37.12415085 -29.3125 41.4375 C-32.70253439 39.90372574 -35.43278951 37.89123872 -38.375 35.625 C-57.21629342 21.86114893 -80.98936904 19.46493694 -103.625 22.125 C-112.28518553 23.54175846 -121.88156111 26.07945376 -127.3125 33.4375 C-130.2546416 38.91597057 -131.2479916 43.36031576 -129.84375 49.48046875 C-127.88442583 55.69665793 -124.5010186 58.71744568 -118.88671875 61.74609375 C-105.5965282 67.94082987 -90.76128867 68.52564315 -76.375 69.875 C-49.47213345 72.44034662 -20.69135488 77.80471921 -1.3125 98.4375 C12.7554393 115.49558834 15.30235309 135.02298167 13.6875 156.4375 C11.91705986 169.94654561 5.62899874 182.29518014 -3.3125 192.4375 C-3.95703125 193.17613281 -4.6015625 193.91476562 -5.265625 194.67578125 C-23.89839728 214.65425375 -52.77292778 222.48251654 -79.29736328 223.55859375 C-120.77175534 224.80951796 -160.01897807 216.89174733 -191.13671875 187.796875 C-193.23016834 185.70671183 -195.29246595 183.59846666 -197.3125 181.4375 C-195.85418908 177.21073787 -193.64064314 173.87043011 -191 170.3125 C-186.09160435 163.57945962 -181.37433369 156.72730336 -176.69213867 149.83544922 C-176.16595947 149.06217285 -175.63978027 148.28889648 -175.09765625 147.4921875 C-174.63238525 146.80624512 -174.16711426 146.12030273 -173.68774414 145.41357422 C-172.27548498 143.3843135 -170.80730088 141.40653066 -169.3125 139.4375 C-166.02368111 140.90999391 -163.55402408 142.79927374 -160.8125 145.125 C-137.3395852 164.00538799 -105.0780231 172.47137581 -75.3125 170.4375 C-64.73182406 168.95422767 -55.08239214 163.62495999 -48.46875 155.2109375 C-45.05798628 149.97956341 -44.97819985 144.78104608 -45.78515625 138.796875 C-46.93542256 133.65049831 -49.66021078 130.66925975 -53.875 127.75 C-62.39533085 122.94537167 -72.04368175 121.8986832 -81.625 120.9375 C-83.92853183 120.68492551 -86.2319156 120.43099736 -88.53515625 120.17578125 C-89.6761377 120.05154785 -90.81711914 119.92731445 -91.99267578 119.79931641 C-122.63304914 116.45992581 -155.03687635 110.54729944 -176.25 86.0625 C-187.61329379 71.2172428 -190.95218219 54.77694773 -189.3125 36.4375 C-186.8165967 18.38261659 -177.52829827 3.66262188 -163.203125 -7.47265625 C-117.30527065 -40.65556447 -42.72984755 -36.24787467 0 0 Z " fill="#ED3365" transform="translate(795.3125,201.5625)"/>
<path d="M0 0 C0 22.11 0 44.22 0 67 C21.45 67 42.9 67 65 67 C65.0825 72.28 65.165 77.56 65.25 83 C65.28641602 84.65 65.32283203 86.3 65.36035156 88 C65.47929872 97.22122361 64.89101572 103.49461337 58.625 110.75 C53.46013502 115.17702712 49.23684906 118.13200228 42.3449707 118.11352539 C41.40422195 118.11344986 40.46347321 118.11337433 39.49421692 118.11329651 C38.48163315 118.10813522 37.46904938 118.10297394 36.42578125 118.09765625 C35.38681198 118.0962413 34.34784271 118.09482635 33.27738953 118.09336853 C29.95573052 118.08776656 26.63413867 118.07521372 23.3125 118.0625 C21.06184993 118.05748525 18.81119881 118.0529223 16.56054688 118.04882812 C11.04034163 118.03779649 5.52017561 118.02105643 0 118 C0.03727646 132.28277888 0.09755727 146.56530473 0.18390274 160.84787464 C0.22333746 167.48054273 0.25554582 174.11307884 0.27099609 180.74584961 C0.28618869 187.15212388 0.32068142 193.55803522 0.36830902 199.96414757 C0.38309581 202.40280686 0.39103945 204.84151797 0.39188385 207.28022194 C0.39426329 210.70779307 0.42142344 214.13436915 0.45410156 217.56176758 C0.4490712 218.56015152 0.44404083 219.55853546 0.43885803 220.58717346 C0.57966223 230.19243559 3.07620548 239.30361959 9.91015625 246.33984375 C18.047546 252.80412533 28.05022794 252.87884422 38 252 C43.74292072 250.99651444 49.16803992 249.28344066 54.68603516 247.44067383 C55.89871567 247.0358654 55.89871567 247.0358654 57.13589478 246.62287903 C58.05862686 246.31455391 58.05862686 246.31455391 59 246 C61.28276311 252.94038432 63.56095913 259.88225538 65.8359375 266.82519531 C66.61091905 269.18849894 67.38695797 271.5514561 68.1640625 273.9140625 C69.27880456 277.30378835 70.38977787 280.69472899 71.5 284.0859375 C71.84998047 285.14743011 72.19996094 286.20892273 72.56054688 287.30258179 C72.88087891 288.28344757 73.20121094 289.26431335 73.53125 290.27490234 C73.81548828 291.14094086 74.09972656 292.00697937 74.39257812 292.89926147 C75 295 75 295 75 297 C45.53000372 307.53961672 12.26240901 312.53863279 -17.4140625 299.5 C-24.99069747 295.66732283 -31.04280527 291.01871481 -37 285 C-38.04607422 284.00419922 -38.04607422 284.00419922 -39.11328125 282.98828125 C-54.77201012 267.02549939 -59.37754131 242.49494633 -59.22705078 220.9675293 C-59.22734283 219.84397034 -59.22763489 218.72041138 -59.22793579 217.56280518 C-59.22655776 213.89986064 -59.2110693 210.23712714 -59.1953125 206.57421875 C-59.19157693 204.01447155 -59.18873253 201.4547229 -59.18673706 198.89497375 C-59.17991689 192.87819251 -59.16420213 186.86149994 -59.14403808 180.84475404 C-59.12155922 173.98606877 -59.11065574 167.12737966 -59.10064721 160.26866663 C-59.07983174 146.17906275 -59.04320419 132.0895521 -59 118 C-73.52 118 -88.04 118 -103 118 C-103 101.17 -103 84.34 -103 67 C-88.48 67 -73.96 67 -59 67 C-59 46.87 -59 26.74 -59 6 C-49.821875 5.01 -40.64375 4.02 -31.1875 3 C-28.29121826 2.68675781 -25.39493652 2.37351562 -22.41088867 2.05078125 C-20.1215956 1.80456131 -17.83228983 1.55845942 -15.54296875 1.3125 C-14.34917603 1.18294922 -13.1553833 1.05339844 -11.92541504 0.91992188 C-10.78882446 0.79810547 -9.65223389 0.67628906 -8.48120117 0.55078125 C-7.49302902 0.44419189 -6.50485687 0.33760254 -5.48674011 0.2277832 C-3 0 -3 0 0 0 Z " fill="#ED3365" transform="translate(929,113)"/>
<path d="M0 0 C21.45 0 42.9 0 65 0 C64.2712218 3.643891 63.63530913 6.18065113 62.21264648 9.47851562 C61.65858124 10.77262611 61.65858124 10.77262611 61.09332275 12.09288025 C60.68998718 13.02129227 60.28665161 13.94970428 59.87109375 14.90625 C59.45027527 15.885298 59.02945679 16.86434601 58.59588623 17.87306213 C57.21435845 21.08404551 55.8259675 24.29201209 54.4375 27.5 C53.46939372 29.74648495 52.5017056 31.99315015 51.53442383 34.23999023 C48.69589879 40.82938209 45.84890035 47.41508859 43 54 C42.27534722 55.67592524 41.55073387 57.35186754 40.82617188 59.02783203 C38.32553384 64.81108432 35.82393949 70.59391953 33.31884766 76.37524414 C27.10963229 90.71198103 20.96209447 105.07511869 14.8125 119.4375 C8.26174668 134.73677501 1.70498056 150.03271296 -4.93286133 165.29443359 C-9.93710681 176.81833448 -14.87378684 188.37106254 -19.81674194 199.9213562 C-28.85389974 221.0382636 -37.94157826 242.13198948 -47.10449219 263.19473267 C-52.46066199 275.507784 -57.79484534 287.82957602 -63.07421875 300.17578125 C-63.56542709 301.32429062 -64.05663544 302.47279999 -64.56272888 303.65611267 C-66.91775417 309.16482016 -69.26913036 314.67505494 -71.6159668 320.18725586 C-72.44966832 322.14047876 -73.28340643 324.09368605 -74.1171875 326.046875 C-74.49828171 326.94509476 -74.87937592 327.84331451 -75.27201843 328.76875305 C-75.79261589 329.98681892 -75.79261589 329.98681892 -76.32373047 331.22949219 C-76.62519989 331.93789246 -76.92666931 332.64629272 -77.23727417 333.37615967 C-78 335 -78 335 -79 336 C-80.9943173 336.09405142 -82.99199543 336.11743249 -84.98852539 336.11352539 C-86.26977798 336.11344986 -87.55103058 336.11337433 -88.87110901 336.11329651 C-90.27995848 336.10818909 -91.68880756 336.10297309 -93.09765625 336.09765625 C-94.53112234 336.09579202 -95.96458907 336.09436814 -97.39805603 336.09336853 C-101.17759957 336.08954372 -104.9571049 336.07971377 -108.7366333 336.06866455 C-112.59069298 336.05844963 -116.44475882 336.05387074 -120.29882812 336.04882812 C-127.86590287 336.03809146 -135.43294609 336.02101549 -143 336 C-142.44396332 332.00924529 -141.59753015 328.61700993 -139.98144531 324.9296875 C-139.56250504 323.96472351 -139.14356476 322.99975952 -138.71192932 322.0055542 C-138.2552739 320.97247131 -137.79861847 319.93938843 -137.328125 318.875 C-136.85434921 317.78858215 -136.38057343 316.70216431 -135.8924408 315.58282471 C-134.35122371 312.0524403 -132.80066059 308.52624535 -131.25 305 C-130.18333079 302.56116526 -129.11733365 300.12203647 -128.05200195 297.68261719 C-125.963611 292.90232625 -123.87211757 288.1234144 -121.77783203 283.34570312 C-118.55571492 275.99130304 -115.36810653 268.62242842 -112.1875 261.25 C-106.93692279 249.1131787 -101.61742744 237.00700133 -96.29504395 224.90155029 C-89.2879512 208.96203268 -82.33362338 192.99994086 -75.39892578 177.02880859 C-74.56023874 175.09732318 -73.72153441 173.16584527 -72.8828125 171.234375 C-72.47136993 170.28684357 -72.05992737 169.33931213 -71.63601685 168.36306763 C-68.95055109 162.18110458 -66.25604592 156.0031585 -63.5546875 149.828125 C-49.83116103 118.45126387 -36.42309947 86.95030926 -23.33984375 55.30102539 C-18.26882182 43.03695184 -13.15096578 30.79320922 -8 18.5625 C-7.65017059 17.73119568 -7.30034119 16.89989136 -6.93991089 16.043396 C-5.9608147 13.71736316 -4.98066487 11.39177809 -4 9.06640625 C-3.56380089 8.03050606 -3.56380089 8.03050606 -3.11878967 6.97367859 C-1.11641026 2.23282052 -1.11641026 2.23282052 0 0 Z " fill="#2D3560" transform="translate(1807,180)"/>
<path d="M0 0 C22.77 0 45.54 0 69 0 C77.28847061 23.51612591 85.5000198 47.05685325 93.64208984 70.62402344 C94.00742828 71.68070221 94.37276672 72.73738098 94.74917603 73.82608032 C95.46655332 75.90315259 96.18238538 77.98075927 96.89657593 80.05892944 C98.59757656 84.99871884 100.32785649 89.92371244 102.12988281 94.82763672 C102.46267242 95.74355087 102.79546204 96.65946503 103.13833618 97.60313416 C103.76124926 99.31232136 104.393895 101.01800644 105.03817749 102.71925354 C106.54133471 106.86682542 107.52183548 109.67874997 106 114 C105.67757324 114.9273999 105.35514648 115.8547998 105.02294922 116.81030273 C104.41990967 118.35633179 104.41990967 118.35633179 103.8046875 119.93359375 C103.34296143 121.12243164 102.88123535 122.31126953 102.40551758 123.53613281 C101.89546156 124.83663424 101.3852857 126.13708868 100.875 127.4375 C100.34827379 128.78862877 99.8218314 130.13986823 99.2956543 131.49121094 C94.1800721 144.60991451 89.00133255 157.70422159 83.81396484 170.79467773 C83.50052628 171.58633835 83.18708771 172.37799896 82.864151 173.19364929 C82.27471457 174.68213764 81.68461313 176.17036289 81.09373474 177.65827942 C79.99904742 180.42339877 78.9406774 183.17796781 78 186 C77.34 186 76.68 186 76 186 C69.67029602 171.38537905 63.55710739 156.69235708 57.5625 141.9375 C56.68853898 139.7906798 55.81434806 137.64395318 54.93994141 135.49731445 C53.60000337 132.20774545 52.26019252 128.91812539 50.92108154 125.6282196 C46.58517531 114.97607397 42.23167772 104.33116322 37.875 93.6875 C37.13864656 91.88803119 36.40231842 90.08855203 35.66601562 88.2890625 C33.44424404 82.85927938 31.22213825 77.42963307 29 72 C24.01165223 59.81118263 19.02376001 47.62218019 14.03939819 35.43173218 C12.11767169 30.7319206 10.19453319 26.03269189 8.2696991 21.33415222 C6.9701319 18.1608134 5.67271698 14.98659589 4.375 11.8125 C3.69159546 10.14658813 3.69159546 10.14658813 2.99438477 8.44702148 C2.39001587 6.96697632 2.39001587 6.96697632 1.7734375 5.45703125 C1.42716309 4.61116455 1.08088867 3.76529785 0.72412109 2.89379883 C0 1 0 1 0 0 Z " fill="#2E3660" transform="translate(1613,180)"/>
</svg>
