<?xml version="1.0" encoding="UTF-8"?>
<svg version="1.1" xmlns="http://www.w3.org/2000/svg" width="1440" height="1440">
<path d="M0 0 C475.2 0 950.4 0 1440 0 C1440 475.2 1440 950.4 1440 1440 C964.8 1440 489.6 1440 0 1440 C0 964.8 0 489.6 0 0 Z " fill="#DFF2F1" transform="translate(0,0)"/>
<path d="M0 0 C25.94806428 -0.07020654 51.89611423 -0.12304514 77.84425449 -0.15543652 C89.89351649 -0.17087884 101.94271934 -0.19191784 113.99194336 -0.22631836 C124.49897886 -0.25630153 135.00597149 -0.27559413 145.51304859 -0.28226548 C151.07197595 -0.28616266 156.63078073 -0.29526632 162.18966866 -0.31719017 C167.43205588 -0.3376964 172.67427112 -0.34380546 177.91669464 -0.33932304 C179.83095932 -0.34014196 181.74523032 -0.34602275 183.65946007 -0.35761642 C198.07099049 -0.44054957 211.26435107 0.99571741 225 5.6875 C225.74781738 5.94168701 226.49563477 6.19587402 227.26611328 6.45776367 C255.5601836 16.47370868 278.77017142 38.53362841 292.5390625 64.953125 C293.77560649 67.60828081 294.90529942 70.28367208 296 73 C296.34546875 73.76441406 296.6909375 74.52882813 297.046875 75.31640625 C308.75370754 103.36777806 305.71457256 135.79207653 294.5 163.3125 C292.50215141 167.97002317 290.33506816 172.50283169 288 177 C283.67046098 176.48130217 280.81498337 173.72256195 277.5625 171.0625 C276.30519449 170.05405507 275.04737054 169.04625623 273.7890625 168.0390625 C273.15516602 167.52891602 272.52126953 167.01876953 271.86816406 166.49316406 C269.08674708 164.27006601 266.26444903 162.1021872 263.4375 159.9375 C262.91454346 159.53394287 262.39158691 159.13038574 261.8527832 158.71459961 C259.03476065 156.5425991 256.19740045 154.40218838 253.33203125 152.29296875 C252.73269775 151.84638916 252.13336426 151.39980957 251.51586914 150.93969727 C250.36644707 150.08394753 249.21093058 149.2363038 248.04858398 148.39819336 C245.9210351 146.80460711 244.23766625 145.4668106 243.01953125 143.07421875 C242.99203447 140.15406114 243.93379624 137.92825337 244.9375 135.1875 C249.63402852 119.3840935 248.67710778 102.61506295 241 88 C238.8763234 84.46510604 236.59297852 81.20274288 234 78 C233.38125 77.17757812 232.7625 76.35515625 232.125 75.5078125 C222.5860528 64.25045202 208.31009058 58.18110103 194 56 C190.49595166 55.75170592 187.0131155 55.74543769 183.50146484 55.77294922 C182.50514038 55.77265717 181.50881592 55.77236511 180.4822998 55.77206421 C177.22508701 55.77344533 173.96810979 55.7889487 170.7109375 55.8046875 C168.43836594 55.80842196 166.16579275 55.81126689 163.89321899 55.81326294 C157.93877647 55.82086525 151.98443295 55.8404843 146.0300293 55.8626709 C139.94321023 55.88320288 133.85637503 55.89228033 127.76953125 55.90234375 C115.84631089 55.92373358 103.92316371 55.95782813 92 56 C92.55905533 56.41806412 93.11811066 56.83612823 93.69410706 57.26686096 C96.27715936 59.19921651 98.85928632 61.132805 101.44140625 63.06640625 C102.32042603 63.72370728 103.1994458 64.3810083 104.10510254 65.05822754 C109.76074979 69.29507281 115.37046482 73.58494359 120.9375 77.9375 C134.32711776 88.3967667 147.85723485 98.67112911 161.46533203 108.84423828 C166.03441677 112.26375018 170.56465326 115.73031313 175.0793457 119.22119141 C179.25065955 122.44010098 183.46453499 125.59928026 187.6875 128.75 C194.37827172 133.74533212 200.97772626 138.8506617 207.55810547 143.99023438 C212.71064947 148.01031427 217.90804658 151.95825165 223.1484375 155.86328125 C229.5353939 160.64912392 235.83392815 165.55277573 242.1484375 170.43359375 C247.96129477 174.91882312 253.80377366 179.35811555 259.6875 183.75 C267.8800765 189.87351261 275.97421776 196.11896347 284.01416016 202.44140625 C285.74734402 203.80170202 287.48790098 205.15177648 289.23046875 206.5 C311.08909944 223.76492692 326.76356404 250.11023637 330.3125 277.9375 C332.08672459 294.79362477 332.22800277 311.72839886 327.53808594 328.09960938 C327.04511892 329.84065078 326.61682379 331.59966767 326.1953125 333.359375 C322.36794373 348.01272972 313.53510673 361.41171336 304 373 C303.35546875 373.79664063 302.7109375 374.59328125 302.046875 375.4140625 C284.23592552 396.48311249 256.18870867 410.62663247 229 414 C221.4399983 414.52648739 213.84895675 414.38058657 206.27563477 414.34057617 C203.98098993 414.33965553 201.68634425 414.34006042 199.39169979 414.34167194 C193.28672228 414.34234491 187.18192376 414.32504866 181.07698822 414.30384064 C175.33318055 414.28666429 169.58941483 414.28594632 163.84558105 414.28381348 C147.08453064 414.26811656 130.32351301 414.22623279 113.5625 414.1875 C57.3490625 414.0946875 57.3490625 414.0946875 0 414 C0 336.45 0 258.9 0 179 C20.150625 178.7525 40.30125 178.505 61.0625 178.25 C70.56816772 178.08612793 70.56816772 178.08612793 80.26586914 177.91894531 C88.06921387 177.86474609 88.06921387 177.86474609 91.73484802 177.85467529 C94.26778032 177.83637748 96.80061508 177.79443972 99.33287048 177.73309326 C124.86535437 177.14604683 124.86535437 177.14604683 134.64215183 186.42418289 C135.64671012 187.45399659 136.63734844 188.49764165 137.61103821 189.55668926 C139.69083773 191.71786964 142.05987138 193.42382552 144.48828125 195.171875 C145.69242676 196.06749146 145.69242676 196.06749146 146.92089844 196.98120117 C147.71012695 197.56490479 148.49935547 198.1486084 149.3125 198.75 C155.10831553 203.06527979 160.84320218 207.42098688 166.453125 211.9765625 C169.92301963 214.73331928 173.45674556 217.40098271 177 220.0625 C177.68739258 220.5788501 178.37478516 221.0952002 179.08300781 221.62719727 C183.75825167 225.11909688 188.50640793 228.47627629 193.375 231.6953125 C194.179375 232.34113281 194.179375 232.34113281 195 233 C195 233.66 195 234.32 195 235 C148.8 235 102.6 235 55 235 C55 275.92 55 316.84 55 359 C84.46885643 358.96760736 84.46885643 358.96760736 113.9375 358.88867188 C125.96356055 358.8461335 137.98948172 358.80860093 150.015625 358.80444336 C158.77621133 358.80139105 167.53655493 358.7807313 176.29704762 358.73947543 C180.9299315 358.71825811 185.5624713 358.70548632 190.19540405 358.71384621 C194.56882079 358.7214584 198.94154446 358.705277 203.31483459 358.67193985 C204.90775003 358.66379195 206.50073554 358.66385394 208.09364319 358.67340279 C226.96765859 358.77521377 243.93258622 353.35848584 257.97265625 340.15625 C264.34558687 333.37810414 268.65929176 325.63934073 272 317 C272.32097656 316.17242188 272.64195312 315.34484375 272.97265625 314.4921875 C277.9065886 299.48385374 275.55558972 282.87868835 268.875 268.875 C263.48222872 258.26574846 255.36294441 251.06198552 246 244 C244.68020583 242.98930387 243.36126043 241.97749885 242.04296875 240.96484375 C239.10937071 238.71359421 236.17174742 236.46776769 233.23046875 234.2265625 C229.64574407 231.49450337 226.07047508 228.75065458 222.5 226 C217.50799228 222.15615406 212.50604608 218.3255423 207.5 214.5 C201.44932652 209.87616973 195.40870592 205.23970356 189.375 200.59375 C185.42322584 197.55392372 181.4614118 194.52724909 177.5 191.5 C171.44270206 186.87110742 165.39523752 182.22987237 159.35546875 177.578125 C156.92465826 175.70815857 154.48890965 173.84478955 152.05078125 171.984375 C144.56843437 166.27473657 137.10856542 160.53915076 129.6875 154.75 C123.78227619 150.14435234 117.84093311 145.59995563 111.8359375 141.125 C108.26816237 138.4516258 104.73592921 135.73356278 101.20581055 133.01074219 C96.64667867 129.49471601 92.07501281 125.99533221 87.5 122.5 C81.44264419 117.87118347 75.39523716 113.2298721 69.35546875 108.578125 C66.92465826 106.70815857 64.48890965 104.84478955 62.05078125 102.984375 C54.65119508 97.33784457 47.27420502 91.6655762 39.9375 85.9375 C33.610589 80.99900771 27.22568654 76.14835309 20.79052734 71.35205078 C3.23595387 58.23595387 3.23595387 58.23595387 0 55 C-0.0935919 53.28134591 -0.11744611 51.55884256 -0.11352539 49.83764648 C-0.11344986 48.73658066 -0.11337433 47.63551483 -0.11329651 46.50108337 C-0.10813522 45.3031868 -0.10297394 44.10529022 -0.09765625 42.87109375 C-0.0962413 41.65172623 -0.09482635 40.4323587 -0.09336853 39.17604065 C-0.08774967 35.2631693 -0.07519396 31.35035419 -0.0625 27.4375 C-0.05748743 24.79231853 -0.0529241 22.14713617 -0.04882812 19.50195312 C-0.03777411 13.00128274 -0.02101764 6.50064539 0 0 Z " fill="#01AC9D" transform="translate(181,475)"/>
<path d="M0 0 C152.84847353 0 152.84847353 0 171.30859375 18.21484375 C180.65486979 27.88667948 189.15426671 40.87240683 189.30639648 54.76733398 C189.32238388 55.87966904 189.33837128 56.99200409 189.35484314 58.13804626 C189.36020584 59.32870193 189.36556854 60.5193576 189.37109375 61.74609375 C189.38012222 62.98939957 189.3891507 64.23270538 189.39845276 65.51368713 C189.41294601 68.14541218 189.42183969 70.77717319 189.42553711 73.40893555 C189.43193085 77.39223349 189.4865107 81.37444212 189.53710938 85.35742188 C189.64185073 101.86738391 188.76477618 114.71666104 180 129 C180 129.99 180 130.98 180 132 C181.53599388 133.56152959 181.53599388 133.56152959 183.5625 135.0625 C193.97948079 143.82307041 201.91341418 158.24142233 203.29116821 171.88293457 C203.40988329 175.02440695 203.44209442 178.15317134 203.43359375 181.296875 C203.4388356 182.44810852 203.44407745 183.59934204 203.44947815 184.78546143 C203.4558691 187.20917967 203.45459958 189.63292905 203.44604492 192.05664062 C203.43755591 195.72583513 203.46630692 199.39345958 203.49804688 203.0625 C203.56776415 226.14618474 199.0994073 242.4970318 183.2734375 259.8984375 C179.09801209 263.96349924 174.33435296 266.61742816 169.1875 269.25 C168.2284375 269.7442749 168.2284375 269.7442749 167.25 270.24853516 C156.68569234 275.40153453 146.62887084 276.43481399 134.98168945 276.34057617 C133.4785041 276.33965523 131.97531745 276.34006095 130.47213268 276.34167194 C126.47811218 276.34234405 122.48436608 276.3250667 118.49040985 276.30384064 C114.73069985 276.28664546 110.97105366 276.28594533 107.21130371 276.28381348 C96.24500003 276.26812572 85.27874646 276.22624191 74.3125 276.1875 C49.789375 276.125625 25.26625 276.06375 0 276 C0 184.92 0 93.84 0 0 Z " fill="#6E7272" transform="translate(1056,544)"/>
<path d="M0 0 C57.75 0 115.5 0 175 0 C175 16.5 175 33 175 50 C133.75 50 92.5 50 50 50 C50 70.79 50 91.58 50 113 C85.31 113 120.62 113 157 113 C157 129.5 157 146 157 163 C121.69 163 86.38 163 50 163 C50 200.29 50 237.58 50 276 C33.5 276 17 276 0 276 C0 184.92 0 93.84 0 0 Z " fill="#6E7272" transform="translate(734,544)"/>
<path d="M0 0 C16.83 0 33.66 0 51 0 C51 91.08 51 182.16 51 276 C34.17 276 17.34 276 0 276 C0 184.92 0 93.84 0 0 Z " fill="#6F7373" transform="translate(955,544)"/>
<path d="M0 0 C19.06505404 -0.16043524 19.06505404 -0.16043524 27.23828125 -0.1953125 C32.79914764 -0.21915523 38.35974871 -0.24725597 43.92041016 -0.30175781 C48.40731322 -0.34545647 52.89393147 -0.36918749 57.38103104 -0.37950897 C59.08653873 -0.38685748 60.79203215 -0.40120675 62.49741745 -0.42292023 C72.77639906 -0.54850201 82.23446 -0.64852033 90.62109375 6.11328125 C91.22050781 6.83902344 91.81992188 7.56476562 92.4375 8.3125 C93.36369141 9.38951172 93.36369141 9.38951172 94.30859375 10.48828125 C99.43065624 18.09448491 99.52840034 25.17004877 99.50097656 34.07788086 C99.5000066 36.29739205 99.54164094 38.51341048 99.5859375 40.73242188 C99.66618207 50.16430166 98.66777372 57.92484214 92.0390625 65.13208008 C86.40560376 70.62514804 79.94063046 73.32452435 72.05465698 73.3732605 C71.35406158 73.36247467 70.65346619 73.35168884 69.93164062 73.34057617 C68.78872055 73.34123329 68.78872055 73.34123329 67.62271118 73.34190369 C65.13361929 73.33983323 62.64522249 73.31658616 60.15625 73.29296875 C58.41890836 73.28736656 56.68156196 73.28309941 54.94421387 73.28010559 C50.39362271 73.2687058 45.84332335 73.23928105 41.29284668 73.20599365 C35.8211978 73.16976153 30.34945082 73.15610842 24.87771606 73.13863373 C16.58494172 73.10964034 8.29280638 73.05211959 0 73 C0 48.91 0 24.82 0 0 Z " fill="#DEF1F0" transform="translate(1108,702)"/>
<path d="M0 0 C16.3040625 -0.12375 16.3040625 -0.12375 32.9375 -0.25 C38.06140259 -0.30462402 38.06140259 -0.30462402 43.28881836 -0.36035156 C46.01415377 -0.37204048 48.73949619 -0.38223183 51.46484375 -0.390625 C52.16194962 -0.40107849 52.85905548 -0.41153198 53.57728577 -0.42230225 C63.4869744 -0.56331091 71.21422275 0.24553098 79.3125 6.3125 C87.8961892 14.8961892 87.27986496 24.16060833 87.35009766 35.54589844 C87.36657951 37.5010983 87.39376553 39.45623987 87.43212891 41.41113281 C87.86543154 63.61883501 87.86543154 63.61883501 80.27294922 71.87890625 C73.25941734 78.77363792 65.21725332 79.37671121 55.82226562 79.33947754 C54.40233941 79.32437776 52.98241738 79.30887845 51.5625 79.29296875 C49.59893555 79.28843689 49.59893555 79.28843689 47.59570312 79.28381348 C42.73038794 79.26817979 37.86518562 79.22629606 33 79.1875 C16.665 79.0946875 16.665 79.0946875 0 79 C0 52.93 0 26.86 0 0 Z " fill="#DEF1F0" transform="translate(1108,583)"/>
<path d="M0 0 C1.98 0 3.96 0 6 0 C6 91.08 6 182.16 6 276 C4.02 276 2.04 276 0 276 C0 184.92 0 93.84 0 0 Z " fill="#989D9E" transform="translate(620,544)"/>
</svg>
