<?xml version="1.0" encoding="UTF-8"?>
<svg version="1.1" xmlns="http://www.w3.org/2000/svg" width="1042" height="625">
<path d="M0 0 C8.25 0 16.5 0 25 0 C25.33 15.84 25.66 31.68 26 48 C30.95 41.565 30.95 41.565 36 35 C38.17516944 32.27921949 40.35458182 29.56839737 42.5625 26.875 C43.10914307 26.2046875 43.65578613 25.534375 44.21899414 24.84375 C46.67802348 21.83013107 49.14436193 18.82261818 51.6171875 15.8203125 C52.76574219 14.42425781 52.76574219 14.42425781 53.9375 13 C54.91009766 11.824375 54.91009766 11.824375 55.90234375 10.625 C57.99175688 8.20045424 57.99175688 8.20045424 59.02832031 5.92773438 C60.47391541 3.33871134 61.61473514 1.78834987 64 0 C69.31426001 -1.00559734 74.50777322 -0.75512378 79.875 -0.5 C81.34104895 -0.45983428 82.80720334 -0.42333884 84.2734375 -0.390625 C87.85116254 -0.30283567 91.4249086 -0.16501398 95 0 C93.49658602 4.00606088 91.89372829 6.50714371 88.9375 9.625 C85.73339438 13.08420957 82.65157731 16.58276566 79.6875 20.25 C76.17773136 24.58812313 72.58323885 28.83907721 68.9375 33.0625 C64.1557042 38.60650116 59.51575161 44.23577588 55 50 C60.60683441 61.83967461 69.53569586 72.55093957 77.00390625 83.26171875 C80.43518909 88.18443755 83.85100787 93.11743648 87.25 98.0625 C87.89352417 98.99787598 87.89352417 98.99787598 88.55004883 99.95214844 C89.70360286 101.63231993 90.85195154 103.31606179 92 105 C92.58491211 105.83700439 92.58491211 105.83700439 93.18164062 106.69091797 C96 110.77901981 96 110.77901981 96 113 C86.1145358 114.50598869 75.74024584 115.81442871 66 113 C59.05305728 107.88216279 55.46780567 99.81546012 51.70263672 92.25537109 C49.06015719 87.20305936 45.80073358 82.63776236 42.5 78 C41.4244053 76.4393423 40.35119756 74.87703464 39.28125 73.3125 C38.52105993 72.20817731 37.76074049 71.10394358 37 70 C35.91160226 70.88967344 34.82955392 71.78711574 33.75 72.6875 C33.14671875 73.18636719 32.5434375 73.68523437 31.921875 74.19921875 C28.4170873 77.48317633 26.21389481 79.62661549 25.45410156 84.50512695 C25.42268066 86.47678833 25.42268066 86.47678833 25.390625 88.48828125 C25.37408875 89.19147995 25.35755249 89.89467865 25.34051514 90.6191864 C25.2921906 92.85038112 25.2707009 95.0808952 25.25 97.3125 C25.22182698 98.83141417 25.19189768 100.35029684 25.16015625 101.86914062 C25.08314773 105.57973528 25.0424933 109.28820992 25 113 C16.75 113 8.5 113 0 113 C0 75.71 0 38.42 0 0 Z " fill="#050708" transform="translate(65,222)"/>
<path d="M0 0 C7.92 0 15.84 0 24 0 C24 39.27 24 78.54 24 119 C16.74 119 9.48 119 2 119 C1.34 117.02 0.68 115.04 0 113 C-0.54527344 113.40992188 -1.09054687 113.81984375 -1.65234375 114.2421875 C-10.97100467 120.90064949 -18.74518506 121.81927146 -30 120 C-38.07890098 118.32752576 -44.24690968 113.03864848 -48.83203125 106.3125 C-57.11969573 91.79396368 -57.54316442 75.0636724 -54 59 C-50.46425023 48.50226506 -44.23733047 40.51558626 -34.5625 35.0625 C-26.56466243 32.52350394 -15.40092398 32.4927295 -7.625 35.8125 C-4.77546605 37.2940306 -3.36809693 38.63190307 -1 41 C-0.67 27.47 -0.34 13.94 0 0 Z M-26 57 C-30.73996849 63.59008522 -31.20177784 69.42595521 -31.25 77.25 C-31.270625 78.07113281 -31.29125 78.89226562 -31.3125 79.73828125 C-31.35364112 86.22829324 -30.43301063 91.67824714 -26.4921875 97.05859375 C-21.95653438 100.92595016 -18.0072281 102.44734677 -12 102 C-6.5284193 100.4497188 -2.94528334 97.86670466 0 93 C0.76025689 89.44223608 0.76025689 89.44223608 0.6640625 85.625 C0.66884613 84.93744629 0.67362976 84.24989258 0.67855835 83.54150391 C0.68194239 82.0960052 0.67284469 80.6504284 0.65185547 79.20507812 C0.62505796 77.00475866 0.65164322 74.8095377 0.68359375 72.609375 C0.68028937 71.19790552 0.67388254 69.78643919 0.6640625 68.375 C0.65842285 67.10398437 0.6527832 65.83296875 0.64697266 64.5234375 C-0.19888046 59.91688949 -1.74409215 58.30824373 -5 55 C-11.34759514 50.65954957 -20.62148933 51.8838557 -26 57 Z " fill="#050708" transform="translate(369,216)"/>
<path d="M0 0 C0.91869873 0.00757324 1.83739746 0.01514648 2.78393555 0.02294922 C13.04542943 0.27209847 22.22651358 2.88526001 29.5625 10.4375 C33.86177379 16.50580166 35.65357104 22.05807075 35.73608398 29.48388672 C35.74957382 30.46195282 35.76306366 31.44001892 35.77696228 32.44772339 C35.79261986 34.01660812 35.79261986 34.01660812 35.80859375 35.6171875 C35.84152894 37.84766022 35.87474065 40.07812888 35.90820312 42.30859375 C35.95559925 45.81296023 36.00005387 49.31730982 36.03930664 52.82177734 C36.07912809 56.2120849 36.13064218 59.60206309 36.18359375 62.9921875 C36.1920079 64.03406219 36.20042206 65.07593689 36.20909119 66.14938354 C36.30231949 71.66381675 36.87698387 76.19844887 38.5625 81.4375 C38.5625 82.7575 38.5625 84.0775 38.5625 85.4375 C34.62538563 85.58242719 30.68895375 85.67144537 26.75 85.75 C25.63044922 85.79189453 24.51089844 85.83378906 23.35742188 85.87695312 C22.28427734 85.89306641 21.21113281 85.90917969 20.10546875 85.92578125 C19.11571045 85.95196533 18.12595215 85.97814941 17.10620117 86.00512695 C14.5625 85.4375 14.5625 85.4375 12.71606445 82.90698242 C12.14505005 81.68458862 12.14505005 81.68458862 11.5625 80.4375 C10.74458984 80.94410156 10.74458984 80.94410156 9.91015625 81.4609375 C0.15035918 87.23339867 -8.19600032 88.348276 -19.4375 86.4375 C-26.81168812 84.2876234 -32.84838079 80.0622669 -37.3125 73.8125 C-40.40393846 67.28612992 -40.73927988 58.88053133 -38.71875 51.984375 C-34.82598454 43.75933831 -27.86309563 38.75021438 -19.4296875 35.71484375 C-9.33574763 32.9563784 1.19529918 33.31309359 11.5625 33.4375 C11.13783503 31.66354492 10.6972591 29.89339369 10.25 28.125 C10.00636719 27.13886719 9.76273438 26.15273438 9.51171875 25.13671875 C8.54536703 22.38878033 7.85082457 21.18340689 5.5625 19.4375 C0.76847137 17.83949046 -3.58992551 17.69847021 -8.25 19.5625 C-11.0716296 21.73561671 -11.0716296 21.73561671 -13.4375 27.4375 C-21.3575 27.4375 -29.2775 27.4375 -37.4375 27.4375 C-36.48826216 18.89435946 -35.98749946 15.41528847 -30.4375 9.4375 C-21.47584539 2.35763861 -11.24194719 -0.13053961 0 0 Z M-11.875 51.5625 C-14.67780555 54.7071111 -15.45445605 56.39238229 -15.671875 60.5078125 C-15.27565216 63.77004719 -13.83316815 65.29400745 -11.4375 67.4375 C-7.56279491 69.87302891 -4.03587303 69.59704798 0.34765625 68.984375 C3.6577055 68.16707889 5.93583368 66.56384893 8.5625 64.4375 C9.38041016 63.85162109 9.38041016 63.85162109 10.21484375 63.25390625 C12.34111592 60.38806115 11.84616812 57.74410828 11.75 54.25 C11.72292969 52.97769531 11.69585938 51.70539063 11.66796875 50.39453125 C11.61576172 48.93080078 11.61576172 48.93080078 11.5625 47.4375 C-0.75144017 46.89707219 -0.75144017 46.89707219 -11.875 51.5625 Z " fill="#050708" transform="translate(630.4375,249.5625)"/>
<path d="M0 0 C6.84301588 4.21829746 10.00287004 10.19076565 12.125 17.8125 C13.24674856 25.46060201 13.25723059 33.10703095 13.22265625 40.8203125 C13.2212413 42.0269455 13.21982635 43.23357849 13.21836853 44.47677612 C13.21281082 48.29704359 13.20026628 52.11725052 13.1875 55.9375 C13.18247953 58.54166581 13.17791758 61.14583256 13.17382812 63.75 C13.16370996 70.10420825 13.14412639 76.45828707 13.125 82.8125 C4.875 82.8125 -3.375 82.8125 -11.875 82.8125 C-11.904729 80.16299316 -11.904729 80.16299316 -11.93505859 77.45996094 C-12.00286142 71.62046125 -12.07963931 65.78111656 -12.16252708 59.94181442 C-12.21244825 56.40184184 -12.25877843 52.86189849 -12.296875 49.32177734 C-12.34084242 45.25078612 -12.40047664 41.18015491 -12.4609375 37.109375 C-12.47248871 35.83946716 -12.48403992 34.56955933 -12.49594116 33.26116943 C-12.51581085 32.08024719 -12.53568054 30.89932495 -12.55615234 29.68261719 C-12.56947601 28.64337097 -12.58279968 27.60412476 -12.5965271 26.53338623 C-12.87848848 23.77841501 -13.39569375 22.13308272 -14.875 19.8125 C-19.51464511 16.57505874 -25.48516037 17.20083596 -30.875 17.8125 C-33.72833347 18.99558949 -35.68310012 20.62060012 -37.875 22.8125 C-37.99844027 24.68346111 -38.05292394 26.55900928 -38.08032227 28.43383789 C-38.10026749 29.63500748 -38.12021271 30.83617706 -38.14076233 32.07374573 C-38.15747482 33.3810112 -38.17418732 34.68827667 -38.19140625 36.03515625 C-38.21196958 37.37894847 -38.23296588 38.72273412 -38.25437927 40.06651306 C-38.30966419 43.60924987 -38.35904498 47.15204567 -38.40722656 50.69488525 C-38.45739487 54.3077115 -38.51310525 57.92045172 -38.56835938 61.53320312 C-38.6760194 68.62622901 -38.77693489 75.71933404 -38.875 82.8125 C-47.125 82.8125 -55.375 82.8125 -63.875 82.8125 C-63.875 55.0925 -63.875 27.3725 -63.875 -1.1875 C-56.285 -1.1875 -48.695 -1.1875 -40.875 -1.1875 C-40.215 1.1225 -39.555 3.4325 -38.875 5.8125 C-38.25625 5.235 -37.6375 4.6575 -37 4.0625 C-26.70974504 -3.34648357 -11.75058277 -5.5091753 0 0 Z " fill="#050708" transform="translate(745.875,252.1875)"/>
<path d="M0 0 C7.92 0 15.84 0 24 0 C24.01458252 1.76110107 24.02916504 3.52220215 24.04418945 5.33666992 C24.09589678 11.16423464 24.16119793 16.99156238 24.23571491 22.81887341 C24.28038664 26.35098666 24.31964938 29.88298544 24.34643555 33.4152832 C24.3774908 37.47897322 24.43227834 41.54204542 24.48828125 45.60546875 C24.49467117 46.8702153 24.5010611 48.13496185 24.50764465 49.43803406 C24.53733589 51.20930412 24.53733589 51.20930412 24.56762695 53.01635742 C24.57873001 54.05338303 24.58983307 55.09040863 24.60127258 56.15885925 C25.06148892 59.43814062 26.0682988 61.33261066 28 64 C32.55995244 67.03996829 37.87592502 66.01499249 43 65 C47.33633946 63.43067385 47.33633946 63.43067385 50 60 C50.1199408 58.09091814 50.17731288 56.17777752 50.20532227 54.26513672 C50.22526749 53.06404266 50.24521271 51.86294861 50.26576233 50.62545776 C50.28247482 49.32335358 50.29918732 48.02124939 50.31640625 46.6796875 C50.33697625 45.33732462 50.35797273 43.99496821 50.37937927 42.65261841 C50.43459531 39.11811562 50.48400658 35.58355443 50.53222656 32.0489502 C50.58244504 28.44273678 50.63812929 24.83660828 50.69335938 21.23046875 C50.80093519 14.15371802 50.90187639 7.07688902 51 0 C59.25 0 67.5 0 76 0 C76 27.72 76 55.44 76 84 C68.41 84 60.82 84 53 84 C52.34 82.02 51.68 80.04 51 78 C50.319375 78.598125 49.63875 79.19625 48.9375 79.8125 C41.1688555 85.5976608 32.74097144 86.5983664 23.18359375 85.75 C15.21175764 84.38687688 9.71876853 81.25388339 4.359375 75.171875 C-0.69420636 67.09776226 -0.39890209 59.25626676 -0.29296875 50 C-0.2873643 48.55412234 -0.28309822 47.10823894 -0.28010559 45.66235352 C-0.26872344 41.8811229 -0.23931474 38.10024526 -0.20599365 34.31915283 C-0.17514857 30.45109835 -0.1615696 26.58298611 -0.14648438 22.71484375 C-0.11443743 15.14305063 -0.06172516 7.57162001 0 0 Z " fill="#050708" transform="translate(166,251)"/>
<path d="M0 0 C0.88623047 -0.01611328 1.77246094 -0.03222656 2.68554688 -0.04882812 C13.04698448 -0.0563857 22.8647557 2.67090774 30.4453125 10.015625 C35.67196504 15.82301671 36.6875 19.23296569 36.6875 27.3125 C28.7675 27.3125 20.8475 27.3125 12.6875 27.3125 C11.3675 24.6725 10.0475 22.0325 8.6875 19.3125 C3.46235612 16.8004116 -0.80174413 17.13807662 -6.3125 18.3125 C-8.89878274 19.70511378 -9.9469798 20.5814596 -11.25 23.1875 C-11.34835639 26.53161715 -10.51480306 27.78632884 -8.3125 30.3125 C-4.06784926 32.14209083 0.13392894 33.20325781 4.63671875 34.171875 C25.83971348 38.76625831 25.83971348 38.76625831 32.75 46.125 C37.18140005 53.41536783 38.712899 59.90360209 36.6875 68.3125 C34.06038837 75.49800533 28.26696592 80.2287197 21.5625 83.5625 C8.50378068 88.83451675 -7.04046809 88.78951768 -20.01953125 83.40234375 C-27.68360916 79.75962188 -34.07831958 74.08146558 -37.25 66.0625 C-38.3125 62.3125 -38.3125 62.3125 -38.3125 58.3125 C-30.7225 58.3125 -23.1325 58.3125 -15.3125 58.3125 C-14.3225 60.2925 -13.3325 62.2725 -12.3125 64.3125 C-7.5237125 68.85570865 -3.96660328 69.64614426 2.5859375 69.5234375 C6.2463274 69.15603777 8.52127831 68.25100308 11.6875 66.3125 C13.09892752 63.4279892 13.09892752 63.4279892 12.6875 60.3125 C9.82442992 56.71496064 7.18371198 55.53338714 2.8125 54.3125 C1.66394531 53.97992188 0.51539063 53.64734375 -0.66796875 53.3046875 C-3.08273615 52.64729101 -5.50206987 52.00642689 -7.92578125 51.3828125 C-19.30091009 48.37430848 -28.51854991 44.53070015 -34.625 34.0625 C-36.37339276 27.06892898 -35.9304066 20.61465988 -32.3125 14.3125 C-24.17978832 2.93100668 -13.48985328 -0.04842015 0 0 Z " fill="#050708" transform="translate(487.3125,249.6875)"/>
<path d="M0 0 C7.92 0 15.84 0 24 0 C24 6.6 24 13.2 24 20 C28.95 20 33.9 20 39 20 C39 25.61 39 31.22 39 37 C34.05 37 29.1 37 24 37 C24.11856268 42.87171171 24.24283188 48.74326502 24.37231445 54.61474609 C24.41553815 56.61080673 24.45722174 58.60690136 24.49731445 60.60302734 C24.55532239 63.47764309 24.61892791 66.35208975 24.68359375 69.2265625 C24.70030624 70.11429352 24.71701874 71.00202454 24.73423767 71.91665649 C24.7641555 73.17728409 24.7641555 73.17728409 24.79467773 74.46337891 C24.81022202 75.19618073 24.8257663 75.92898254 24.84178162 76.68399048 C25.03253449 79.47624175 25.5398868 82.2393208 26 85 C32.93 85.495 32.93 85.495 40 86 C40 91.94 40 97.88 40 104 C28.83492703 106.53074987 18.3008372 107.26031959 8.02734375 101.44921875 C3.05600808 97.89552793 1.09171319 92.82808022 0 87 C-0.26238935 83.12375995 -0.23321912 79.26248592 -0.1953125 75.37890625 C-0.1924826 74.27900864 -0.18965271 73.17911102 -0.18673706 72.04588318 C-0.1755898 68.55130897 -0.15049498 65.05699606 -0.125 61.5625 C-0.11496316 59.18555059 -0.10583854 56.80859714 -0.09765625 54.43164062 C-0.07566827 48.62099389 -0.04117582 42.81054117 0 37 C-4.29 37 -8.58 37 -13 37 C-13 31.39 -13 25.78 -13 20 C-8.71 20 -4.42 20 0 20 C0 13.4 0 6.8 0 0 Z " fill="#050708" transform="translate(543,231)"/>
<path d="M0 0 C5.61 0 11.22 0 17 0 C17 10.56 17 21.12 17 32 C27.56 32 38.12 32 49 32 C49 21.44 49 10.88 49 0 C54.94 0 60.88 0 67 0 C67 26.07 67 52.14 67 79 C61.06 79 55.12 79 49 79 C49 68.11 49 57.22 49 46 C38.44 46 27.88 46 17 46 C17 56.89 17 67.78 17 79 C11.39 79 5.78 79 0 79 C0 52.93 0 26.86 0 0 Z " fill="#F15F26" transform="translate(779,199)"/>
<path d="M0 0 C5.61 0 11.22 0 17 0 C17.33 8.91 17.66 17.82 18 27 C19.32 26.01 20.64 25.02 22 24 C28.2988114 21.9003962 36.32245657 21.78939891 42.4375 24.5625 C49.20938186 28.63420112 52.92512969 34.50569233 55 42 C57.63204164 52.76744309 56.35444964 64.63811274 51.1875 74.4375 C46.7489685 79.63692261 42.1713444 83.50519225 35.16796875 84.3359375 C28.25234095 84.42657482 23.89446435 83.67013818 18 80 C17.505 79.505 17.505 79.505 17 79 C16.34 80.32 15.68 81.64 15 83 C10.05 83 5.1 83 0 83 C0 55.61 0 28.22 0 0 Z M17 42 C16.2677 45.84854257 16.30183854 49.593178 16.375 53.5 C16.35566406 54.53253906 16.33632813 55.56507813 16.31640625 56.62890625 C16.34801831 61.52877544 16.36500922 64.15054213 19.359375 68.15625 C22.48181161 70.33641284 24.18657046 71 28 71 C32.10130806 69.81826717 34.32897514 69.03222617 36.68359375 65.41015625 C38.28461711 61.26269812 38.4445528 57.8972824 38.375 53.5 C38.38660156 52.76652344 38.39820313 52.03304687 38.41015625 51.27734375 C38.38441465 46.48082585 37.65509752 43.13846186 35 39 C31.84905867 36.89937245 30.7775634 36.65686714 27.125 36.5625 C26.28195312 36.52253906 25.43890625 36.48257813 24.5703125 36.44140625 C20.58704958 37.30706977 19.32885868 38.65021559 17 42 Z " fill="#F15F26" transform="translate(924,195)"/>
<path d="M0 0 C1.23363281 0.01546875 2.46726562 0.0309375 3.73828125 0.046875 C6.6875 0.25 6.6875 0.25 7.6875 1.25 C8.06145662 8.64114253 7.68056552 15.92614181 6.6875 23.25 C5.92566406 23.21519531 5.16382813 23.18039062 4.37890625 23.14453125 C-2.74495551 22.95776334 -9.99512571 22.94188958 -15.90046692 27.4667511 C-17.85194859 29.93126669 -17.70977801 31.60774247 -17.74487305 34.73120117 C-17.76466721 35.85213669 -17.78446136 36.9730722 -17.80485535 38.12797546 C-17.81444023 39.94214714 -17.81444023 39.94214714 -17.82421875 41.79296875 C-17.84216995 43.03170242 -17.86012115 44.2704361 -17.87861633 45.54670715 C-17.92365077 48.8362946 -17.9559265 52.12568459 -17.98205566 55.41546631 C-18.01185939 58.77385921 -18.05822876 62.13202044 -18.10351562 65.49023438 C-18.19111975 72.07684196 -18.25105701 78.66288805 -18.3125 85.25 C-26.5625 85.25 -34.8125 85.25 -43.3125 85.25 C-43.3125 57.53 -43.3125 29.81 -43.3125 1.25 C-35.7225 1.25 -28.1325 1.25 -20.3125 1.25 C-19.6525 3.56 -18.9925 5.87 -18.3125 8.25 C-17.61125 7.486875 -16.91 6.72375 -16.1875 5.9375 C-11.07933474 1.16247595 -6.95227488 -0.14682735 0 0 Z " fill="#050708" transform="translate(301.3125,249.75)"/>
<path d="M0 0 C5.61 0 11.22 0 17 0 C17.02505615 1.22630127 17.0501123 2.45260254 17.07592773 3.71606445 C17.17003054 8.2615827 17.27024433 12.80694917 17.37231445 17.35229492 C17.41565241 19.32035779 17.45732832 21.28845798 17.49731445 23.2565918 C17.55504445 26.0839361 17.61873116 28.91109271 17.68359375 31.73828125 C17.70030624 32.61962234 17.71701874 33.50096344 17.73423767 34.40901184 C17.75418289 35.22963608 17.77412811 36.05026031 17.79467773 36.89575195 C17.81799416 37.97830009 17.81799416 37.97830009 17.84178162 39.0827179 C17.94195257 41.22108144 17.94195257 41.22108144 19 44 C24.32095223 46.23479994 27.65981892 46.09418866 33 44 C35.36633008 41.63366992 35.26107236 41.13363844 35.31884766 37.91748047 C35.33871735 37.07675995 35.35858704 36.23603943 35.37905884 35.36984253 C35.39061005 34.46146637 35.40216125 33.55309021 35.4140625 32.6171875 C35.43342865 31.68778351 35.4527948 30.75837952 35.4727478 29.80081177 C35.53263685 26.8256352 35.5789661 23.85042012 35.625 20.875 C35.66317121 18.86066 35.70222243 16.84633646 35.7421875 14.83203125 C35.838346 9.88815425 35.9223424 4.94420083 36 0 C41.61 0 47.22 0 53 0 C53 19.47 53 38.94 53 59 C47.72 59 42.44 59 37 59 C36.505 57.02 36.505 57.02 36 55 C35.071875 55.639375 34.14375 56.27875 33.1875 56.9375 C27.10954411 60.87029499 21.05365561 60.60031112 14 60 C8.61603628 58.44725811 5.02327962 55.7674794 2 51 C-0.70177807 46.03785941 -0.25314278 40.94165694 -0.1953125 35.44921875 C-0.1924826 34.43527542 -0.18965271 33.42133209 -0.18673706 32.37666321 C-0.17556625 29.14682073 -0.15046711 25.91725829 -0.125 22.6875 C-0.1149662 20.49414464 -0.10584105 18.30078492 -0.09765625 16.10742188 C-0.07563701 10.7381738 -0.04112825 5.36913434 0 0 Z " fill="#F15F26" transform="translate(859,219)"/>
<path d="M0 0 C8.25 0 16.5 0 25 0 C25 27.72 25 55.44 25 84 C16.75 84 8.5 84 0 84 C0 56.28 0 28.56 0 0 Z " fill="#050708" transform="translate(411,251)"/>
<path d="M0 0 C1.98 0 3.96 0 6 0 C8.76950767 7.89309685 10.9001081 15.90955355 13 24 C13.20681396 23.30849854 13.41362793 22.61699707 13.62670898 21.90454102 C14.56034724 18.78952946 15.49885583 15.67600659 16.4375 12.5625 C16.76298828 11.47388672 17.08847656 10.38527344 17.42382812 9.26367188 C17.73642578 8.22919922 18.04902344 7.19472656 18.37109375 6.12890625 C18.65911865 5.17056885 18.94714355 4.21223145 19.24389648 3.22485352 C20 1 20 1 21 0 C22.65 0 24.3 0 26 0 C28.64 7.92 31.28 15.84 34 24 C35.98 16.08 37.96 8.16 40 0 C41.98 0 43.96 0 46 0 C45.32604275 7.50713489 43.42650907 14.60223484 41.5 21.875 C41.17902344 23.10992187 40.85804687 24.34484375 40.52734375 25.6171875 C38.14388321 34.71223358 38.14388321 34.71223358 37 37 C35.02 37 33.04 37 31 37 C27.535 25.615 27.535 25.615 24 14 C22.22867425 16.65698862 21.4323415 18.42766319 20.52734375 21.4140625 C20.13772461 22.67863281 20.13772461 22.67863281 19.74023438 23.96875 C19.47533203 24.8453125 19.21042969 25.721875 18.9375 26.625 C18.40772909 28.36803522 17.87531765 30.11027082 17.33984375 31.8515625 C17.10644287 32.62322754 16.87304199 33.39489258 16.63256836 34.18994141 C16 36 16 36 15 37 C13.00041636 37.04080783 10.99954746 37.04254356 9 37 C7.71519002 32.05287412 6.43352133 27.10494933 5.15478516 22.15625 C4.71912983 20.47210593 4.28260974 18.78818531 3.84521484 17.10449219 C3.21746159 14.68742865 2.59280029 12.26958435 1.96875 9.8515625 C1.77188599 9.0963028 1.57502197 8.34104309 1.37219238 7.56289673 C0 2.22774341 0 2.22774341 0 0 Z " fill="#050708" transform="translate(64,365)"/>
<path d="M0 0 C1.16015625 0.02707031 1.16015625 0.02707031 2.34375 0.0546875 C3.41109375 0.08949219 3.41109375 0.08949219 4.5 0.125 C5.49 0.125 6.48 0.125 7.5 0.125 C9.5 0.125 11.5 0.125 13.5 0.125 C13.59935088 4.42995015 13.67169268 8.73428183 13.71972656 13.04003906 C13.73976332 14.50272252 13.76700104 15.96532666 13.80175781 17.42773438 C13.85063225 19.5379601 13.87304659 21.64712136 13.890625 23.7578125 C13.91157227 25.02512207 13.93251953 26.29243164 13.95410156 27.59814453 C13.41885628 31.75521621 12.0967246 33.87864122 9.5 37.125 C5.49760752 39.8697237 1.18502936 39.68331956 -3.5 39.125 C-7.0625 37.625 -7.0625 37.625 -9.5 36.125 C-9.5 34.805 -9.5 33.485 -9.5 32.125 C-7.6875 31.5 -7.6875 31.5 -5.5 31.125 C-4.51 31.785 -3.52 32.445 -2.5 33.125 C1.72138757 33.59540308 1.72138757 33.59540308 5.375 31.75 C6.68973666 30.18033986 6.68973666 30.18033986 6.5 28.125 C5.51 28.455 4.52 28.785 3.5 29.125 C-0.71234945 29.52239146 -3.0099628 29.37464159 -6.8125 27.4375 C-10.36906868 24.37719672 -11.30007054 21.85229752 -11.8359375 17.22265625 C-11.91775821 10.86518734 -11.88999006 6.89127492 -7.5 2.125 C-4.32988425 0.0115895 -3.60829256 -0.10824878 0 0 Z M-3.875 7.0625 C-6.0704489 11.20007677 -6.30379955 14.53422731 -5.5 19.125 C-4.16983836 22.35338773 -4.16983836 22.35338773 -1.5 24.125 C2.49438174 24.05613135 4.6314229 23.9935771 7.5 21.125 C7.85870143 18.10195692 7.85870143 18.10195692 7.8125 14.6875 C7.82925781 13.53378906 7.84601563 12.38007813 7.86328125 11.19140625 C7.75301625 8.16285806 7.75301625 8.16285806 6.1640625 6.24609375 C2.49565951 3.77465794 -0.58718255 4.38033313 -3.875 7.0625 Z " fill="#050708" transform="translate(331.5,373.875)"/>
<path d="M0 0 C1.65 0 3.3 0 5 0 C5 0.66 5 1.32 5 2 C5.85078125 1.51273437 5.85078125 1.51273437 6.71875 1.015625 C9.18710174 -0.08329872 10.81603219 -0.26838334 13.5 -0.25 C14.2528125 -0.25515625 15.005625 -0.2603125 15.78125 -0.265625 C18 0 18 0 20.03125 1.140625 C20.6809375 1.42421875 21.330625 1.7078125 22 2 C24.0186432 1.17573203 24.0186432 1.17573203 26 0 C28.18359375 -0.37109375 28.18359375 -0.37109375 30.4375 -0.4375 C31.17871094 -0.47746094 31.91992188 -0.51742188 32.68359375 -0.55859375 C36.50628837 0.36323649 37.75302226 1.77095157 40 5 C40.60837558 8.95613431 40.4709481 12.82204545 40.3125 16.8125 C40.28994141 17.88693359 40.26738281 18.96136719 40.24414062 20.06835938 C40.18535598 22.7136685 40.10323957 25.35611413 40 28 C38.35 28 36.7 28 35 28 C34.970271 27.16021606 34.970271 27.16021606 34.93994141 26.3034668 C34.84462217 23.76434146 34.73497247 21.22603112 34.625 18.6875 C34.5940625 17.80642578 34.563125 16.92535156 34.53125 16.01757812 C34.47324219 14.74624023 34.47324219 14.74624023 34.4140625 13.44921875 C34.3826416 12.66893311 34.3512207 11.88864746 34.31884766 11.0847168 C34.10412111 8.69844232 34.10412111 8.69844232 32 6 C29 5.58333333 29 5.58333333 26 6 C23.56085508 8.43914492 23.71337477 9.21446431 23.5859375 12.5703125 C23.54726563 13.46621094 23.50859375 14.36210937 23.46875 15.28515625 C23.42234375 16.69087891 23.42234375 16.69087891 23.375 18.125 C23.33632813 19.06988281 23.29765625 20.01476562 23.2578125 20.98828125 C23.16338654 23.32532375 23.07781606 25.66235501 23 28 C21.02 28 19.04 28 17 28 C16.67 20.74 16.34 13.48 16 6 C13.36 6 10.72 6 8 6 C5.94872156 9.07691766 5.72739128 9.93644999 5.5859375 13.44921875 C5.54726562 14.29677734 5.50859375 15.14433594 5.46875 16.01757812 C5.42234375 17.33918945 5.42234375 17.33918945 5.375 18.6875 C5.33632812 19.58017578 5.29765625 20.47285156 5.2578125 21.39257812 C5.16359782 23.5948462 5.07798412 25.79710722 5 28 C3.35 28 1.7 28 0 28 C0 18.76 0 9.52 0 0 Z " fill="#050708" transform="translate(245,374)"/>
<path d="M0 0 C3.17619926 2.04688397 4.91655946 3.53106445 6.8125 6.8125 C7.43641938 11.72586509 7.34513057 13.7852839 5.0625 18.1875 C2.3001589 21.41023128 0.44016071 22.60105163 -3.7734375 23.1484375 C-9.76632342 23.23237148 -13.52154282 22.99989747 -18.1875 18.8125 C-20.89306375 14.75415437 -20.70693246 11.57117154 -20.1875 6.8125 C-18.75299588 2.9309006 -17.5740721 2.02808829 -13.9375 0 C-8.75357855 -1.64157513 -5.12653657 -1.90988617 0 0 Z " fill="#050708" transform="translate(430.1875,219.1875)"/>
<path d="M0 0 C2.93423195 1.79646854 4.47205355 2.9441071 6 6 C6.15222973 7.66565749 6.24917215 9.33656496 6.31640625 11.0078125 C6.35830078 11.99394531 6.40019531 12.98007812 6.44335938 13.99609375 C6.48267578 15.02863281 6.52199219 16.06117188 6.5625 17.125 C6.60568359 18.16527344 6.64886719 19.20554687 6.69335938 20.27734375 C6.7996288 22.85142528 6.90166583 25.42560508 7 28 C5.01432292 27.96744792 3.02864583 27.93489583 1.04296875 27.90234375 C-1.20305461 27.91736783 -1.20305461 27.91736783 -4 29 C-8.99942891 29.37032807 -11.97242055 29.0799137 -16 26 C-17.59745879 22.80508241 -17.50816842 19.46790611 -17 16 C-14.79259319 13.03141843 -13.51402627 12.17134209 -10 11 C-8.27204648 10.93197033 -6.54164635 10.91504355 -4.8125 10.9375 C-3.91144531 10.94652344 -3.01039063 10.95554687 -2.08203125 10.96484375 C-1.39496094 10.97644531 -0.70789063 10.98804688 0 11 C-0.66 9.35 -1.32 7.7 -2 6 C-5.41642759 5.74984127 -5.41642759 5.74984127 -9 6 C-9.99 7.485 -9.99 7.485 -11 9 C-14.125 9.1875 -14.125 9.1875 -17 9 C-16.80037128 5.40668306 -16.21261372 4.20171045 -13.5625 1.6875 C-8.91345211 -0.51468058 -5.0636759 -0.8608249 0 0 Z M-11 17 C-11.25030977 19.41619823 -11.25030977 19.41619823 -11 22 C-8.17282787 24.33296251 -8.17282787 24.33296251 -4.9375 23.75 C-1.900541 23.2406756 -1.900541 23.2406756 0 21 C0.16681109 17.91652174 0.16681109 17.91652174 0 15 C-4.21878192 14.80377759 -7.17010894 15.19769832 -11 17 Z " fill="#050708" transform="translate(869,374)"/>
<path d="M0 0 C2.35596574 1.97597126 2.87465894 2.90931427 3.14282227 5.96337891 C3.17947998 6.91647949 3.2161377 7.86958008 3.25390625 8.8515625 C3.29580078 9.8828125 3.33769531 10.9140625 3.38085938 11.9765625 C3.42017578 13.05679687 3.45949219 14.13703125 3.5 15.25 C3.54318359 16.33796875 3.58636719 17.4259375 3.63085938 18.546875 C3.7371453 21.2394517 3.83918057 23.93212253 3.9375 26.625 C1.27083333 26.625 -1.39583333 26.625 -4.0625 26.625 C-5.0525 26.955 -6.0425 27.285 -7.0625 27.625 C-14.63354796 28.03796625 -14.63354796 28.03796625 -18.0625 25.625 C-20.56281654 21.87452518 -20.59853554 20.06643734 -20.0625 15.625 C-17.52112841 12.46545695 -15.91627341 10.90959114 -12.0625 9.625 C-10.50131572 9.55759135 -8.9374748 9.53985544 -7.375 9.5625 C-6.16263672 9.57603516 -6.16263672 9.57603516 -4.92578125 9.58984375 C-4.00345703 9.60724609 -4.00345703 9.60724609 -3.0625 9.625 C-3.7225 7.975 -4.3825 6.325 -5.0625 4.625 C-7.7025 4.625 -10.3425 4.625 -13.0625 4.625 C-13.3925 5.615 -13.7225 6.605 -14.0625 7.625 C-16.0425 7.625 -18.0225 7.625 -20.0625 7.625 C-17.60444721 0.98825745 -17.60444721 0.98825745 -15.26171875 -0.58203125 C-10.25848488 -2.3860392 -4.8091559 -2.15921285 0 0 Z M-14.0625 16.625 C-13.7325 18.275 -13.4025 19.925 -13.0625 21.625 C-8.80538781 22.70472277 -8.80538781 22.70472277 -4.6875 21.5625 C-2.75301806 19.63687721 -2.75301806 19.63687721 -2.8125 16.4375 C-2.93625 15.0453125 -2.93625 15.0453125 -3.0625 13.625 C-7.73711851 13.29886382 -10.22924383 13.91917212 -14.0625 16.625 Z " fill="#050708" transform="translate(311.0625,375.375)"/>
<path d="M0 0 C3.19106517 3.09721031 4.20973214 6.76892637 5.125 11.0625 C5.125 12.3825 5.125 13.7025 5.125 15.0625 C-4.28 15.5575 -4.28 15.5575 -13.875 16.0625 C-12.10648964 19.24324165 -12.10648964 19.24324165 -9.875 22.0625 C-5.21021915 22.48657099 -2.69035994 21.75569525 1.125 19.0625 C2.115 19.7225 3.105 20.3825 4.125 21.0625 C4 22.875 4 22.875 3.125 25.0625 C-1.30058332 28.08484958 -5.61923259 28.94522541 -10.875 28.0625 C-14.41327888 26.94181008 -16.95007669 25.47054476 -19.01171875 22.33203125 C-21.25930145 17.23683245 -21.33627659 12.40405834 -19.875 7.0625 C-15.47530066 -1.28175737 -8.73522591 -2.84844323 0 0 Z M-12.75 5.9375 C-14.03096257 7.9563588 -14.03096257 7.9563588 -13.875 10.0625 C-9.915 10.0625 -5.955 10.0625 -1.875 10.0625 C-2.205 8.4125 -2.535 6.7625 -2.875 5.0625 C-6.48877139 3.25561431 -9.82036138 3.00786138 -12.75 5.9375 Z " fill="#050708" transform="translate(162.875,374.9375)"/>
<path d="M0 0 C2.93388722 2.67501482 3.91430749 5.17798116 5.125 8.9375 C5.125 10.9175 5.125 12.8975 5.125 14.9375 C-1.145 14.9375 -7.415 14.9375 -13.875 14.9375 C-12.39860997 19.99758639 -12.39860997 19.99758639 -8.875 21.9375 C-4.71630536 21.64045038 -2.37092778 21.26811852 1.125 18.9375 C2.115 19.5975 3.105 20.2575 4.125 20.9375 C4 22.75 4 22.75 3.125 24.9375 C-1.41321589 28.03676939 -5.54348215 28.71434791 -10.875 27.9375 C-15.68227425 26.21413753 -17.66339257 24.49455854 -19.875 19.9375 C-20.2734375 16.78125 -20.2734375 16.78125 -20.25 13.4375 C-20.25773438 12.3340625 -20.26546875 11.230625 -20.2734375 10.09375 C-19.71280502 5.65266136 -18.13321907 3.01068685 -14.75 0.125 C-9.77923889 -1.92814046 -5.03015294 -1.85896956 0 0 Z M-12.3125 5.75 C-14.06874606 7.76070672 -14.06874606 7.76070672 -13.875 9.9375 C-9.585 9.9375 -5.295 9.9375 -0.875 9.9375 C-1.535 8.2875 -2.195 6.6375 -2.875 4.9375 C-7.89076689 3.61729753 -7.89076689 3.61729753 -12.3125 5.75 Z " fill="#050708" transform="translate(208.875,375.0625)"/>
<path d="M0 0 C1.98 0 3.96 0 6 0 C6.33 3.96 6.66 7.92 7 12 C7.66 11.67 8.32 11.34 9 11 C10.98828125 10.76171875 10.98828125 10.76171875 13.3125 10.6875 C14.07175781 10.65011719 14.83101562 10.61273438 15.61328125 10.57421875 C19.31671959 11.2348976 20.59840954 12.03803844 23 15 C23.62631718 19.0964634 23.46827257 23.11843209 23.3125 27.25 C23.28994141 28.37664062 23.26738281 29.50328125 23.24414062 30.6640625 C23.18524254 33.44405232 23.10304201 36.22135332 23 39 C21.35 39 19.7 39 18 39 C17.95101562 37.74703125 17.90203125 36.4940625 17.8515625 35.203125 C17.77651417 33.55206179 17.70096723 31.90102119 17.625 30.25 C17.5940625 29.425 17.563125 28.6 17.53125 27.75 C17.49257812 26.95078125 17.45390625 26.1515625 17.4140625 25.328125 C17.36693115 24.22839355 17.36693115 24.22839355 17.31884766 23.10644531 C16.96227477 20.75077082 16.16337117 19.06549409 15 17 C10.65815798 17.18464366 10.65815798 17.18464366 7 19 C6.84344973 20.48638992 6.74933057 21.97949127 6.68359375 23.47265625 C6.64169922 24.37177734 6.59980469 25.27089844 6.55664062 26.19726562 C6.49766602 27.61555664 6.49766602 27.61555664 6.4375 29.0625 C6.37272461 30.4865918 6.37272461 30.4865918 6.30664062 31.93945312 C6.20020724 34.29281353 6.09818992 36.64628354 6 39 C4.02 39 2.04 39 0 39 C0 26.13 0 13.26 0 0 Z " fill="#050708" transform="translate(114,363)"/>
<path d="M0 0 C2.35596574 1.97597126 2.87465894 2.90931427 3.14282227 5.96337891 C3.17947998 6.91647949 3.2161377 7.86958008 3.25390625 8.8515625 C3.29580078 9.8828125 3.33769531 10.9140625 3.38085938 11.9765625 C3.42017578 13.05679687 3.45949219 14.13703125 3.5 15.25 C3.54318359 16.33796875 3.58636719 17.4259375 3.63085938 18.546875 C3.7371453 21.2394517 3.83918057 23.93212253 3.9375 26.625 C1.91927083 26.59244792 -0.09895833 26.55989583 -2.1171875 26.52734375 C-4.14435404 26.49850758 -4.14435404 26.49850758 -6.0625 27.625 C-10.63156789 28.08190679 -13.76265133 28.32191391 -17.5625 25.5625 C-20.0625 22.625 -20.0625 22.625 -20.75 19.125 C-19.8990478 14.7928797 -18.4867043 13.33251037 -15.0625 10.625 C-12.04759443 9.62003148 -10.02068308 9.52164697 -6.875 9.5625 C-5.97394531 9.57152344 -5.07289063 9.58054687 -4.14453125 9.58984375 C-3.45746094 9.60144531 -2.77039063 9.61304688 -2.0625 9.625 C-2.98033124 6.9799963 -2.98033124 6.9799963 -5.0625 4.625 C-7.85624292 4.15662101 -10.20471036 4.39075495 -13.0625 4.625 C-13.3925 5.615 -13.7225 6.605 -14.0625 7.625 C-15.7125 7.625 -17.3625 7.625 -19.0625 7.625 C-18.83024367 4.14115511 -18.68258825 2.2250854 -16.125 -0.25 C-10.7036944 -2.24150002 -5.29542758 -2.37753891 0 0 Z M-14.0625 16.625 C-13.7325 18.275 -13.4025 19.925 -13.0625 21.625 C-10.30543584 22.48882428 -10.30543584 22.48882428 -7.0625 22.625 C-4.0921131 21.14883326 -4.0921131 21.14883326 -2.0625 18.625 C-1.64379447 15.95571879 -1.64379447 15.95571879 -2.0625 13.625 C-7.08504631 13.3295561 -9.95792386 13.63985372 -14.0625 16.625 Z " fill="#050708" transform="translate(413.0625,375.375)"/>
<path d="M0 0 C3.974471 2.28854919 6.54160728 4.62482184 8 9 C8.50704484 14.29487804 8.64847741 18.65500981 6.3125 23.5 C2.68049109 27.42649612 0.50770878 28.82977482 -4.875 29.4375 C-9.29185232 29.23711351 -12.69684837 27.97108876 -16 25 C-18.76696342 20.26938512 -19.58248144 16.43649347 -19 11 C-17.73948341 6.86830674 -16.57176203 4.5438712 -13.4375 1.5625 C-8.82019231 -0.53627622 -4.98494484 -1.06146302 0 0 Z M-10.3125 6.5 C-12.5882914 9.87154281 -13.17631303 13.00612656 -13 17 C-12.21578022 20.48734008 -12.21578022 20.48734008 -10 23 C-6.64982715 24.41909682 -6.64982715 24.41909682 -3 24 C0.14358251 22.2739971 0.14358251 22.2739971 2 19 C2.94192465 14.4225767 2.56481786 11.06446442 0.375 6.9375 C-1.89209196 4.77257109 -1.89209196 4.77257109 -5 4.4375 C-8.02473833 4.80782451 -8.02473833 4.80782451 -10.3125 6.5 Z " fill="#050708" transform="translate(471,374)"/>
<path d="M0 0 C4.59601298 1.83840519 6.86390823 4.56958744 9 9 C9.7878555 14.34786762 9.6747335 18.60055275 7.3125 23.5 C3.64995376 27.45950944 1.50831996 28.85635048 -3.9375 29.375 C-8.80729074 29.17285774 -12.44547266 27.66173612 -15.8125 24.0625 C-18.26216163 19.80782454 -18.33050749 15.87498545 -18 11 C-16.72736764 6.82859394 -15.57690222 4.53569492 -12.375 1.5625 C-8.05974344 -0.43530397 -4.67639202 -0.7014588 0 0 Z M-11 9 C-12.53214888 12.06429776 -12.22938548 14.6165642 -12 18 C-11.1155391 20.94707246 -11.1155391 20.94707246 -9 23 C-5.64407137 24.33660145 -5.64407137 24.33660145 -2 24 C1.14358251 22.2739971 1.14358251 22.2739971 3 19 C3.94192465 14.4225767 3.56481786 11.06446442 1.375 6.9375 C-0.89209196 4.77257109 -0.89209196 4.77257109 -4 4.4375 C-7.6025741 5.11298264 -8.75005199 6.16673213 -11 9 Z " fill="#050708" transform="translate(813,374)"/>
<path d="M0 0 C3.74526566 1.80327606 5.54125416 3.32717277 7.875 6.75 C9.71110064 12.05429074 9.74254704 16.62311925 7.75 21.8125 C5.41200204 26.07099628 3.54453873 27.48515376 -1 29 C-6.24262952 29.39567015 -9.54355112 28.83592201 -14 26 C-18.00861481 21.5767009 -18.34839548 17.26553767 -18.28125 11.5078125 C-17.74935905 6.76511816 -15.31691405 4.12878347 -11.8125 1.125 C-7.79534134 -0.48186346 -4.26652255 -0.66970107 0 0 Z M-10.375 6.9375 C-12.56481786 11.06446442 -12.94192465 14.4225767 -12 19 C-10.14358251 22.2739971 -10.14358251 22.2739971 -7 24 C-3.35592863 24.33660145 -3.35592863 24.33660145 0 23 C2.58584552 20.16391137 2.96647599 18.31289077 3.375 14.5 C2.97859791 10.80024712 2.24169299 8.93144468 0 6 C-3.92533672 4.03733164 -6.97471765 4.16358545 -10.375 6.9375 Z " fill="#050708" transform="translate(929,374)"/>
<path d="M0 0 C3.74526566 1.80327606 5.54125416 3.32717277 7.875 6.75 C9.71110064 12.05429074 9.74254704 16.62311925 7.75 21.8125 C5.41200204 26.07099628 3.54453873 27.48515376 -1 29 C-6.24262952 29.39567015 -9.54355112 28.83592201 -14 26 C-18.00861481 21.5767009 -18.34839548 17.26553767 -18.28125 11.5078125 C-17.74935905 6.76511816 -15.31691405 4.12878347 -11.8125 1.125 C-7.79534134 -0.48186346 -4.26652255 -0.66970107 0 0 Z M-10.375 6.9375 C-12.56481786 11.06446442 -12.94192465 14.4225767 -12 19 C-10.14358251 22.2739971 -10.14358251 22.2739971 -7 24 C-3.35592863 24.33660145 -3.35592863 24.33660145 0 23 C2.58584552 20.16391137 2.96647599 18.31289077 3.375 14.5 C2.97859791 10.80024712 2.24169299 8.93144468 0 6 C-3.92533672 4.03733164 -6.97471765 4.16358545 -10.375 6.9375 Z " fill="#050708" transform="translate(697,374)"/>
<path d="M0 0 C2.55758825 2.4750854 2.70524367 4.39115511 2.9375 7.875 C0.0625 8.0625 0.0625 8.0625 -3.0625 7.875 C-3.7225 6.885 -4.3825 5.895 -5.0625 4.875 C-8.14615871 4.6247843 -8.14615871 4.6247843 -11.0625 4.875 C-11.7225 6.195 -12.3825 7.515 -13.0625 8.875 C-12.24265625 9.05675781 -11.4228125 9.23851562 -10.578125 9.42578125 C-9.50046875 9.67714844 -8.4228125 9.92851562 -7.3125 10.1875 C-6.24515625 10.43113281 -5.1778125 10.67476563 -4.078125 10.92578125 C-1.09773389 11.86390954 0.67831313 12.74279319 2.9375 14.875 C4.09115493 18.41287511 4.22817884 20.16445173 2.8125 23.625 C0.56314356 26.32422773 -0.65463069 27.04196528 -4.0625 27.875 C-9.71226536 28.32339408 -13.16301669 28.02466784 -18.0625 24.875 C-20.0625 21.875 -20.0625 21.875 -20.0625 17.875 C-17.25 17.625 -17.25 17.625 -14.0625 17.875 C-13.60875 18.535 -13.155 19.195 -12.6875 19.875 C-11.28052043 22.07270325 -11.28052043 22.07270325 -9.10546875 22.140625 C-7.08925027 22.12650088 -5.07444698 22.00693095 -3.0625 21.875 C-3.0625 20.225 -3.0625 18.575 -3.0625 16.875 C-3.88234375 16.70484375 -4.7021875 16.5346875 -5.546875 16.359375 C-6.62453125 16.11703125 -7.7021875 15.8746875 -8.8125 15.625 C-9.87984375 15.39296875 -10.9471875 15.1609375 -12.046875 14.921875 C-15.37820744 13.76540208 -16.88365649 12.61662536 -19.0625 9.875 C-19.6875 6.9375 -19.6875 6.9375 -19.0625 3.875 C-13.89358874 -2.3821031 -7.43352688 -2.73068334 0 0 Z " fill="#050708" transform="translate(641.0625,375.125)"/>
<path d="M0 0 C1.98 0 3.96 0 6 0 C6.02505615 0.6612085 6.0501123 1.32241699 6.07592773 2.00366211 C6.19153102 4.98182305 6.31441754 7.9596392 6.4375 10.9375 C6.47681641 11.97841797 6.51613281 13.01933594 6.55664062 14.09179688 C6.59853516 15.08115234 6.64042969 16.07050781 6.68359375 17.08984375 C6.72025146 18.00628662 6.75690918 18.92272949 6.79467773 19.86694336 C6.77003864 21.9820728 6.77003864 21.9820728 8 23 C12.3409369 22.85841338 12.3409369 22.85841338 16 21 C16.15686249 19.44051458 16.25076639 17.87457332 16.31640625 16.30859375 C16.35830078 15.36435547 16.40019531 14.42011719 16.44335938 13.44726562 C16.48267578 12.45404297 16.52199219 11.46082031 16.5625 10.4375 C16.60568359 9.44041016 16.64886719 8.44332031 16.69335938 7.41601562 C16.79980298 4.9441585 16.90181928 2.4721969 17 0 C18.98 0 20.96 0 23 0 C23 9.24 23 18.48 23 28 C20.69 28 18.38 28 16 28 C15.01 28.33 14.02 28.66 13 29 C8.00057109 29.37032807 5.02757945 29.0799137 1 26 C-0.30475618 23.39048764 -0.11301572 21.47298715 -0.09765625 18.5546875 C-0.09443359 17.47832031 -0.09121094 16.40195312 -0.08789062 15.29296875 C-0.07951172 14.16503906 -0.07113281 13.03710938 -0.0625 11.875 C-0.05798828 10.73933594 -0.05347656 9.60367187 -0.04882812 8.43359375 C-0.03701615 5.62234362 -0.02054507 2.8111977 0 0 Z " fill="#050708" transform="translate(545,374)"/>
<path d="M0 0 C1.98 0 3.96 0 6 0 C6 0.66 6 1.32 6 2 C6.495 1.67 6.99 1.34 7.5 1 C11.00792862 -0.40317145 14.30685087 -0.6008695 18 0 C22.56782245 2.72125593 22.56782245 2.72125593 23.62280273 5.84277344 C24.03419234 8.19554921 24.11296584 10.3773289 24.09765625 12.765625 C24.09443359 13.65507812 24.09121094 14.54453125 24.08789062 15.4609375 C24.07951172 16.38132812 24.07113281 17.30171875 24.0625 18.25 C24.05798828 19.18585938 24.05347656 20.12171875 24.04882812 21.0859375 C24.03706918 23.39069041 24.02063426 25.69531227 24 28 C22.02 28 20.04 28 18 28 C17.67 20.74 17.34 13.48 17 6 C10.36980013 5.35284977 10.36980013 5.35284977 7 8 C6.49297483 10.12106795 6.49297483 10.12106795 6.48828125 12.5703125 C6.45283203 13.46621094 6.41738281 14.36210937 6.38085938 15.28515625 C6.35830078 16.22230469 6.33574219 17.15945313 6.3125 18.125 C6.27833984 19.06988281 6.24417969 20.01476562 6.20898438 20.98828125 C6.12635888 23.32540253 6.05726012 25.66214191 6 28 C4.02 28 2.04 28 0 28 C0 18.76 0 9.52 0 0 Z " fill="#050708" transform="translate(737,374)"/>
<path d="M0 0 C5 0 5 0 7 1 C7.66 0.67 8.32 0.34 9 0 C10.98828125 -0.2734375 10.98828125 -0.2734375 13.3125 -0.375 C14.07175781 -0.42398437 14.83101562 -0.47296875 15.61328125 -0.5234375 C19.50398349 0.32984253 20.73329569 1.72719712 23 5 C23.60759054 8.95629852 23.47095079 12.82197772 23.3125 16.8125 C23.28994141 17.88693359 23.26738281 18.96136719 23.24414062 20.06835938 C23.18535598 22.7136685 23.10323957 25.35611413 23 28 C21.02 28 19.04 28 17 28 C16.97494385 27.36908447 16.9498877 26.73816895 16.92407227 26.08813477 C16.80845863 23.24603175 16.68557684 20.40428917 16.5625 17.5625 C16.52318359 16.56927734 16.48386719 15.57605469 16.44335938 14.55273438 C16.40146484 13.60849609 16.35957031 12.66425781 16.31640625 11.69140625 C16.27974854 10.81685791 16.24309082 9.94230957 16.20532227 9.04125977 C16.21818934 7.0072598 16.21818934 7.0072598 15 6 C12.04182893 5.74994614 12.04182893 5.74994614 9 6 C6.56085508 8.43914492 6.71337477 9.21446431 6.5859375 12.5703125 C6.54726563 13.46621094 6.50859375 14.36210937 6.46875 15.28515625 C6.4378125 16.22230469 6.406875 17.15945313 6.375 18.125 C6.33632813 19.06988281 6.29765625 20.01476562 6.2578125 20.98828125 C6.16338654 23.32532375 6.07781606 25.66235501 6 28 C4.02 28 2.04 28 0 28 C0 18.76 0 9.52 0 0 Z " fill="#050708" transform="translate(943,374)"/>
<path d="M0 0 C5 0 5 0 7 1 C7.66 0.67 8.32 0.34 9 0 C10.98828125 -0.2734375 10.98828125 -0.2734375 13.3125 -0.375 C14.07175781 -0.42398437 14.83101562 -0.47296875 15.61328125 -0.5234375 C19.50398349 0.32984253 20.73329569 1.72719712 23 5 C23.60759054 8.95629852 23.47095079 12.82197772 23.3125 16.8125 C23.28994141 17.88693359 23.26738281 18.96136719 23.24414062 20.06835938 C23.18535598 22.7136685 23.10323957 25.35611413 23 28 C21.02 28 19.04 28 17 28 C16.97494385 27.36908447 16.9498877 26.73816895 16.92407227 26.08813477 C16.80845863 23.24603175 16.68557684 20.40428917 16.5625 17.5625 C16.52318359 16.56927734 16.48386719 15.57605469 16.44335938 14.55273438 C16.40146484 13.60849609 16.35957031 12.66425781 16.31640625 11.69140625 C16.27974854 10.81685791 16.24309082 9.94230957 16.20532227 9.04125977 C16.21818934 7.0072598 16.21818934 7.0072598 15 6 C12.04182893 5.74994614 12.04182893 5.74994614 9 6 C6.56085508 8.43914492 6.71337477 9.21446431 6.5859375 12.5703125 C6.54726563 13.46621094 6.50859375 14.36210937 6.46875 15.28515625 C6.4378125 16.22230469 6.406875 17.15945313 6.375 18.125 C6.33632813 19.06988281 6.29765625 20.01476562 6.2578125 20.98828125 C6.16338654 23.32532375 6.07781606 25.66235501 6 28 C4.02 28 2.04 28 0 28 C0 18.76 0 9.52 0 0 Z " fill="#050708" transform="translate(767,374)"/>
<path d="M0 0 C1.98 0 3.96 0 6 0 C6 0.66 6 1.32 6 2 C6.495 1.67 6.99 1.34 7.5 1 C11.00792862 -0.40317145 14.30685087 -0.6008695 18 0 C22.56782245 2.72125593 22.56782245 2.72125593 23.62280273 5.84277344 C24.03419234 8.19554921 24.11296584 10.3773289 24.09765625 12.765625 C24.09443359 13.65507812 24.09121094 14.54453125 24.08789062 15.4609375 C24.07951172 16.38132812 24.07113281 17.30171875 24.0625 18.25 C24.05798828 19.18585938 24.05347656 20.12171875 24.04882812 21.0859375 C24.03706918 23.39069041 24.02063426 25.69531227 24 28 C22.02 28 20.04 28 18 28 C17.67 20.74 17.34 13.48 17 6 C10.36980013 5.35284977 10.36980013 5.35284977 7 8 C6.49297483 10.12106795 6.49297483 10.12106795 6.48828125 12.5703125 C6.45283203 13.46621094 6.41738281 14.36210937 6.38085938 15.28515625 C6.35830078 16.22230469 6.33574219 17.15945313 6.3125 18.125 C6.27833984 19.06988281 6.24417969 20.01476562 6.20898438 20.98828125 C6.12635888 23.32540253 6.05726012 25.66214191 6 28 C4.02 28 2.04 28 0 28 C0 18.76 0 9.52 0 0 Z " fill="#050708" transform="translate(484,374)"/>
<path d="M0 0 C3.33333333 0 6.66666667 0 10 0 C12.95170605 -0.18740232 12.95170605 -0.18740232 15.90234375 -0.390625 C19.45027743 0.27007029 20.6769594 1.18030934 23 4 C23.63001369 8.09567051 23.46826042 12.11875433 23.3125 16.25 C23.28994141 17.37664062 23.26738281 18.50328125 23.24414062 19.6640625 C23.18524254 22.44405232 23.10304201 25.22135332 23 28 C21.35 28 19.7 28 18 28 C17.98018066 27.44014404 17.96036133 26.88028809 17.93994141 26.3034668 C17.84462217 23.76434146 17.73497247 21.22603112 17.625 18.6875 C17.5940625 17.80642578 17.563125 16.92535156 17.53125 16.01757812 C17.49257813 15.17001953 17.45390625 14.32246094 17.4140625 13.44921875 C17.36693115 12.27879028 17.36693115 12.27879028 17.31884766 11.0847168 C17.10412111 8.69844232 17.10412111 8.69844232 15 6 C10.65815798 6.18464366 10.65815798 6.18464366 7 8 C6.84344973 9.48638992 6.74933057 10.97949127 6.68359375 12.47265625 C6.64169922 13.37177734 6.59980469 14.27089844 6.55664062 15.19726562 C6.49766602 16.61555664 6.49766602 16.61555664 6.4375 18.0625 C6.37272461 19.4865918 6.37272461 19.4865918 6.30664062 20.93945312 C6.20020724 23.29281353 6.09818992 25.64628354 6 28 C4.02 28 2.04 28 0 28 C0 18.76 0 9.52 0 0 Z " fill="#050708" transform="translate(364,374)"/>
<path d="M0 0 C1.65 0 3.3 0 5 0 C5.33 0.66 5.66 1.32 6 2 C6.99 1.34 7.98 0.68 9 0 C12.04453491 -0.48219153 14.95291087 -0.46284898 18 0 C20.50160818 1.87620613 21.61945652 3.23891303 23 6 C23.08426094 7.6674606 23.10725143 9.33825187 23.09765625 11.0078125 C23.09443359 11.99394531 23.09121094 12.98007812 23.08789062 13.99609375 C23.07951172 15.02863281 23.07113281 16.06117188 23.0625 17.125 C23.05798828 18.16527344 23.05347656 19.20554687 23.04882812 20.27734375 C23.03701952 22.85161962 23.02055075 25.42578146 23 28 C21.02 28 19.04 28 17 28 C16.97494385 27.40461426 16.9498877 26.80922852 16.92407227 26.19580078 C16.80822506 23.50530864 16.68544804 20.8151766 16.5625 18.125 C16.52318359 17.18785156 16.48386719 16.25070312 16.44335938 15.28515625 C16.40146484 14.38925781 16.35957031 13.49335938 16.31640625 12.5703125 C16.27974854 11.74289551 16.24309082 10.91547852 16.20532227 10.06298828 C16.11761673 7.93820571 16.11761673 7.93820571 15 6 C10.91084858 5.59603962 10.91084858 5.59603962 7.33276367 7.23364258 C5.67395836 9.43211417 5.58004957 10.71452274 5.48828125 13.44921875 C5.45283203 14.29677734 5.41738281 15.14433594 5.38085938 16.01757812 C5.35830078 16.89865234 5.33574219 17.77972656 5.3125 18.6875 C5.27833984 19.58017578 5.24417969 20.47285156 5.20898438 21.39257812 C5.12654352 23.59492671 5.05738449 25.79687938 5 28 C3.35 28 1.7 28 0 28 C0 18.76 0 9.52 0 0 Z " fill="#050708" transform="translate(593,374)"/>
<path d="M0 0 C1.98 0 3.96 0 6 0 C6.42152344 1.14339844 6.84304688 2.28679687 7.27734375 3.46484375 C7.83058521 4.95578259 8.38397847 6.44666511 8.9375 7.9375 C9.21529297 8.69224609 9.49308594 9.44699219 9.77929688 10.22460938 C10.91753451 13.88779139 10.91753451 13.88779139 13 17 C14.98 11.39 16.96 5.78 19 0 C20.98 0 22.96 0 25 0 C24.35760353 5.97227973 22.1618739 11.26041477 20 16.8125 C19.44699219 18.26172852 19.44699219 18.26172852 18.8828125 19.74023438 C16.14158929 26.85841071 16.14158929 26.85841071 15 28 C13.33382885 28.04063832 11.66611905 28.042721 10 28 C7.33333333 21.33333333 4.66666667 14.66666667 2 8 C1.44481689 6.70485474 1.44481689 6.70485474 0.87841797 5.38354492 C0 3 0 3 0 0 Z " fill="#050708" transform="translate(824,374)"/>
<path d="M0 0 C1.98 0 3.96 0 6 0 C6 1.98 6 3.96 6 6 C7.98 6 9.96 6 12 6 C12 7.65 12 9.3 12 11 C10.02 11 8.04 11 6 11 C6.33 17.27 6.66 23.54 7 30 C8.65 30 10.3 30 12 30 C11.67 31.65 11.34 33.3 11 35 C4.52369077 35.36658354 4.52369077 35.36658354 2.125 33.6875 C0.16405054 30.7460758 -0.12197873 28.1990011 -0.09765625 24.76953125 C-0.09282227 23.56586914 -0.09282227 23.56586914 -0.08789062 22.33789062 C-0.07951172 21.50451172 -0.07113281 20.67113281 -0.0625 19.8125 C-0.05798828 18.96751953 -0.05347656 18.12253906 -0.04882812 17.25195312 C-0.03705403 15.16793845 -0.0191189 13.08396023 0 11 C-1.65 11 -3.3 11 -5 11 C-5 9.35 -5 7.7 -5 6 C-3.35 6 -1.7 6 0 6 C0 4.02 0 2.04 0 0 Z " fill="#050708" transform="translate(883,368)"/>
<path d="M0 0 C1.98 0 3.96 0 6 0 C6 1.98 6 3.96 6 6 C7.65 6 9.3 6 11 6 C11 7.65 11 9.3 11 11 C9.35 11 7.7 11 6 11 C6.33 16.94 6.66 22.88 7 29 C8.32 29.33 9.64 29.66 11 30 C11 31.65 11 33.3 11 35 C4.66913069 35.36524246 4.66913069 35.36524246 1.79003906 33.79370117 C0 32 0 32 -0.45410156 29.73168945 C-0.4331543 28.86761475 -0.41220703 28.00354004 -0.390625 27.11328125 C-0.37773437 26.17548828 -0.36484375 25.23769531 -0.3515625 24.27148438 C-0.31804687 23.29501953 -0.28453125 22.31855469 -0.25 21.3125 C-0.23195313 20.32443359 -0.21390625 19.33636719 -0.1953125 18.31835938 C-0.14815447 15.87793158 -0.08236042 13.43945231 0 11 C-1.65 11 -3.3 11 -5 11 C-5 9.35 -5 7.7 -5 6 C-3.35 6 -1.7 6 0 6 C0 4.02 0 2.04 0 0 Z " fill="#050708" transform="translate(425,368)"/>
<path d="M0 0 C1.98 0 3.96 0 6 0 C6 1.98 6 3.96 6 6 C7.65 6 9.3 6 11 6 C11 7.65 11 9.3 11 11 C9.35 11 7.7 11 6 11 C6.33 16.94 6.66 22.88 7 29 C8.32 29.33 9.64 29.66 11 30 C11 31.65 11 33.3 11 35 C4.77293935 35.47900467 4.77293935 35.47900467 1.78125 33.625 C-0.99246547 29.5374193 -0.42528283 25.56353626 -0.25 20.75 C-0.23195313 19.81414062 -0.21390625 18.87828125 -0.1953125 17.9140625 C-0.14825673 15.60832985 -0.08253713 13.30469055 0 11 C-1.65 11 -3.3 11 -5 11 C-5 9.35 -5 7.7 -5 6 C-3.35 6 -1.7 6 0 6 C0 4.02 0 2.04 0 0 Z " fill="#050708" transform="translate(665,368)"/>
<path d="M0 0 C1.98 0 3.96 0 6 0 C6 1.98 6 3.96 6 6 C7.65 6 9.3 6 11 6 C11 7.65 11 9.3 11 11 C9.35 11 7.7 11 6 11 C6.33 16.94 6.66 22.88 7 29 C8.32 29.33 9.64 29.66 11 30 C11 31.65 11 33.3 11 35 C4.77293935 35.47900467 4.77293935 35.47900467 1.78125 33.625 C-0.99246547 29.5374193 -0.42528283 25.56353626 -0.25 20.75 C-0.23195313 19.81414062 -0.21390625 18.87828125 -0.1953125 17.9140625 C-0.14825673 15.60832985 -0.08253713 13.30469055 0 11 C-1.65 11 -3.3 11 -5 11 C-5 9.35 -5 7.7 -5 6 C-3.35 6 -1.7 6 0 6 C0 4.02 0 2.04 0 0 Z " fill="#050708" transform="translate(529,368)"/>
<path d="M0 0 C5 0 10 0 15 0 C15 1.98 15 3.96 15 6 C13.865625 6.12375 12.73125 6.2475 11.5625 6.375 C9.7990625 6.684375 9.7990625 6.684375 8 7 C6.85345518 9.29308963 6.80270883 10.79909656 6.68359375 13.3515625 C6.64169922 14.20234375 6.59980469 15.053125 6.55664062 15.9296875 C6.51732422 16.81914062 6.47800781 17.70859375 6.4375 18.625 C6.37272461 19.97078125 6.37272461 19.97078125 6.30664062 21.34375 C6.20043139 23.56234283 6.09838806 25.7810488 6 28 C4.02 28 2.04 28 0 28 C0 18.76 0 9.52 0 0 Z " fill="#050708" transform="translate(574,374)"/>
<path d="M0 0 C5 0 10 0 15 0 C15 1.98 15 3.96 15 6 C13.2984375 6.2165625 13.2984375 6.2165625 11.5625 6.4375 C8.19222799 6.61171478 8.19222799 6.61171478 7 8 C6.84344973 9.48638992 6.74933057 10.97949127 6.68359375 12.47265625 C6.64169922 13.37177734 6.59980469 14.27089844 6.55664062 15.19726562 C6.49766602 16.61555664 6.49766602 16.61555664 6.4375 18.0625 C6.37272461 19.4865918 6.37272461 19.4865918 6.30664062 20.93945312 C6.20020724 23.29281353 6.09818992 25.64628354 6 28 C4.02 28 2.04 28 0 28 C0 18.76 0 9.52 0 0 Z " fill="#050708" transform="translate(172,374)"/>
<path d="M0 0 C1.98 0 3.96 0 6 0 C6 9.24 6 18.48 6 28 C4.02 28 2.04 28 0 28 C0 18.76 0 9.52 0 0 Z " fill="#050708" transform="translate(441,374)"/>
<path d="M0 0 C1.98 0 3.96 0 6 0 C6 9.24 6 18.48 6 28 C4.02 28 2.04 28 0 28 C0 18.76 0 9.52 0 0 Z " fill="#050708" transform="translate(232,374)"/>
<path d="M0 0 C1.65 0 3.3 0 5 0 C5 9.24 5 18.48 5 28 C3.35 28 1.7 28 0 28 C0 18.76 0 9.52 0 0 Z " fill="#050708" transform="translate(900,374)"/>
<path d="M0 0 C1.65 0 3.3 0 5 0 C5 9.24 5 18.48 5 28 C3.35 28 1.7 28 0 28 C0 18.76 0 9.52 0 0 Z " fill="#050708" transform="translate(725,374)"/>
<path d="M0 0 C1.65 0 3.3 0 5 0 C5 9.24 5 18.48 5 28 C3.35 28 1.7 28 0 28 C0 18.76 0 9.52 0 0 Z " fill="#050708" transform="translate(352,374)"/>
<path d="M0 0 C0.639375 0.2475 1.27875 0.495 1.9375 0.75 C2.2675 1.74 2.5975 2.73 2.9375 3.75 C1.6875 5.3125 1.6875 5.3125 -0.0625 6.75 C-2.25 6.4375 -2.25 6.4375 -4.0625 5.75 C-4.0625 4.1 -4.0625 2.45 -4.0625 0.75 C-2.0625 -0.25 -2.0625 -0.25 0 0 Z " fill="#050708" transform="translate(977.0625,396.25)"/>
<path d="M0 0 C1.2065625 0.0309375 1.2065625 0.0309375 2.4375 0.0625 C3.0625 1.9375 3.0625 1.9375 3.4375 4.0625 C2.7775 4.7225 2.1175 5.3825 1.4375 6.0625 C-0.6875 5.6875 -0.6875 5.6875 -2.5625 5.0625 C-3.125 3.125 -3.125 3.125 -3.5625 1.0625 C-2.5625 0.0625 -2.5625 0.0625 0 0 Z " fill="#050708" transform="translate(902.5625,364.9375)"/>
<path d="M0 0 C1.2065625 0.0309375 1.2065625 0.0309375 2.4375 0.0625 C3.0625 1.9375 3.0625 1.9375 3.4375 4.0625 C2.7775 4.7225 2.1175 5.3825 1.4375 6.0625 C-0.6875 5.6875 -0.6875 5.6875 -2.5625 5.0625 C-3.125 3.125 -3.125 3.125 -3.5625 1.0625 C-2.5625 0.0625 -2.5625 0.0625 0 0 Z " fill="#050708" transform="translate(727.5625,364.9375)"/>
<path d="M0 0 C1.2065625 0.0309375 1.2065625 0.0309375 2.4375 0.0625 C3.0625 1.9375 3.0625 1.9375 3.4375 4.0625 C2.7775 4.7225 2.1175 5.3825 1.4375 6.0625 C-0.6875 5.6875 -0.6875 5.6875 -2.5625 5.0625 C-3.125 3.125 -3.125 3.125 -3.5625 1.0625 C-2.5625 0.0625 -2.5625 0.0625 0 0 Z " fill="#050708" transform="translate(354.5625,364.9375)"/>
<path d="M0 0 C1.98 0 3.96 0 6 0 C6 1.65 6 3.3 6 5 C2.25 6.125 2.25 6.125 0 5 C0 3.35 0 1.7 0 0 Z " fill="#050708" transform="translate(441,365)"/>
<path d="M0 0 C1.98 0 3.96 0 6 0 C6 1.65 6 3.3 6 5 C2.25 6.125 2.25 6.125 0 5 C0 3.35 0 1.7 0 0 Z " fill="#050708" transform="translate(232,365)"/>
</svg>
